<?xml version="1.0" encoding="utf-8"?>
<!-- Generator: Adobe Illustrator 25.4.1, SVG Export Plug-In . SVG Version: 6.00 Build 0)  -->
<svg version="1.1" id="Layer_1" xmlns="http://www.w3.org/2000/svg" xmlns:xlink="http://www.w3.org/1999/xlink" x="0px" y="0px"
	 viewBox="0 0 19.7 18.6" style="enable-background:new 0 0 19.7 18.6;" xml:space="preserve">
<style type="text/css">
	.st0{fill:#941345;}
</style>
<path class="st0" d="M8.4,18.4C8.2,18.4,8,18.2,8,18v-4c0-0.4,0.1-1,0.4-1.4L18,1.5l-17,9l5.4,1.8c0.2,0.1,0.3,0.3,0.2,0.5
	c0,0.2-0.2,0.3-0.4,0.2l-5.7-1.8C0.1,11,0,10.7,0,10.6c0-0.1,0-0.4,0.4-0.6l18.3-9.8c0.1-0.1,0.3-0.1,0.4,0c0.2-0.1,0.3,0,0.4,0
	c0.1,0.1,0.3,0.3,0.2,0.7l-2.9,14.6c-0.1,0.3-0.3,0.6-0.5,0.7s-0.5,0.2-0.7,0.1l-5.7-1.8c-0.2-0.1-0.3-0.3-0.2-0.5s0.3-0.3,0.5-0.2
	l5.7,1.8H16c0.1,0,0.1-0.1,0.2-0.2l2.7-13.9l-10,11.6c-0.1,0.1-0.2,0.5-0.2,0.9v4C8.7,18.2,8.6,18.4,8.4,18.4z"/>
</svg>
