<?xml version="1.0" encoding="utf-8"?>
<!-- Generator: Adobe Illustrator 25.4.1, SVG Export Plug-In . SVG Version: 6.00 Build 0)  -->
<svg version="1.1" id="Слой_1" xmlns="http://www.w3.org/2000/svg" xmlns:xlink="http://www.w3.org/1999/xlink" x="0px" y="0px"
	 viewBox="0 0 236.6 76.6" style="enable-background:new 0 0 236.6 76.6;" xml:space="preserve">
<style type="text/css">
	.st0{opacity:0.15;fill:#941445;}
	.st1{opacity:0.15;fill:#44535D;}
</style>
<path class="st0" d="M44,33.5h186.6c3.3,0,6-2.7,6-6v0c0-3.3-2.7-6-6-6H44c-3.3,0-6,2.7-6,6v0C38.1,30.8,40.8,33.5,44,33.5z"/>
<path class="st1" d="M6,55.1h224.7c3.3,0,6-2.7,6-6v0c0-3.3-2.7-6-6-6H6c-3.3,0-6,2.7-6,6v0C0,52.4,2.7,55.1,6,55.1z"/>
<path class="st1" d="M74.3,11.9h156.3c3.3,0,6-2.7,6-6v0c0-3.3-2.7-6-6-6L74.3,0c-3.3,0-6,2.7-6,6v0C68.4,9.3,71,11.9,74.3,11.9z"/>
<path class="st1" d="M74.3,76.6h156.3c3.3,0,6-2.7,6-6v0c0-3.3-2.7-6-6-6H74.3c-3.3,0-6,2.7-6,6v0C68.4,74,71,76.6,74.3,76.6z"/>
</svg>
