<?xml version="1.0" encoding="utf-8"?>
<!-- Generator: Adobe Illustrator 25.4.1, SVG Export Plug-In . SVG Version: 6.00 Build 0)  -->
<svg version="1.1" id="Слой_1" xmlns="http://www.w3.org/2000/svg" xmlns:xlink="http://www.w3.org/1999/xlink" x="0px" y="0px"
	 viewBox="0 0 778.3 370.3" style="enable-background:new 0 0 778.3 370.3;" xml:space="preserve">
<style type="text/css">
	.st0{fill:#941445;}
	.st1{fill:#44535D;}
	.st2{fill-rule:evenodd;clip-rule:evenodd;fill:#941445;}
	.st3{fill:#FFFFFF;}
	.st4{fill:#6382C1;}
</style>
<g>
	<g>
		<path class="st0" d="M112.4,155H6c-3.3,0-6-2.7-6-6v0c0-3.3,2.7-6,6-6h106.4c3.3,0,6,2.7,6,6v0C118.4,152.3,115.7,155,112.4,155z"
			/>
		<path class="st1" d="M112.4,176.6H6c-3.3,0-6-2.7-6-6v0c0-3.3,2.7-6,6-6h106.4c3.3,0,6,2.7,6,6v0
			C118.4,173.9,115.7,176.6,112.4,176.6z"/>
		<path class="st1" d="M112.4,133.4H6c-3.3,0-6-2.7-6-6v0c0-3.3,2.7-6,6-6h106.4c3.3,0,6,2.7,6,6v0
			C118.4,130.8,115.7,133.4,112.4,133.4z"/>
		<path class="st1" d="M112.4,198.1H6c-3.3,0-6-2.7-6-6v0c0-3.3,2.7-6,6-6h106.4c3.3,0,6,2.7,6,6v0
			C118.4,195.4,115.7,198.1,112.4,198.1z"/>
	</g>
	<g>
		<path class="st0" d="M479.6,155H293c-3.3,0-6-2.7-6-6v0c0-3.3,2.7-6,6-6h186.6c3.3,0,6,2.7,6,6v0C485.5,152.3,482.9,155,479.6,155
			z"/>
		<path class="st1" d="M517.7,176.6H293c-3.3,0-6-2.7-6-6v0c0-3.3,2.7-6,6-6h224.7c3.3,0,6,2.7,6,6v0
			C523.6,173.9,521,176.6,517.7,176.6z"/>
		<path class="st1" d="M449.3,133.4H293c-3.3,0-6-2.7-6-6v0c0-3.3,2.7-6,6-6h156.3c3.3,0,6,2.7,6,6v0
			C455.3,130.8,452.6,133.4,449.3,133.4z"/>
		<path class="st1" d="M449.3,198.1H293c-3.3,0-6-2.7-6-6v0c0-3.3,2.7-6,6-6h156.3c3.3,0,6,2.7,6,6v0
			C455.3,195.4,452.6,198.1,449.3,198.1z"/>
		<path class="st0" d="M772.3,155H568.1c-3.3,0-6-2.7-6-6v0c0-3.3,2.7-6,6-6h204.2c3.3,0,6,2.7,6,6v0
			C778.3,152.3,775.6,155,772.3,155z"/>
		<path class="st1" d="M770.9,176.6H606.4c-3.3,0-6-2.7-6-6v0c0-3.3,2.7-6,6-6h164.6c3.3,0,6,2.7,6,6v0
			C776.9,173.9,774.2,176.6,770.9,176.6z"/>
		<path class="st1" d="M770.9,133.4H544.3c-3.3,0-6-2.7-6-6v0c0-3.3,2.7-6,6-6h226.7c3.3,0,6,2.7,6,6v0
			C776.9,130.8,774.2,133.4,770.9,133.4z"/>
		<path class="st1" d="M772.3,198.1h-228c-3.3,0-6-2.7-6-6v0c0-3.3,2.7-6,6-6h228c3.3,0,6,2.7,6,6v0
			C778.3,195.4,775.6,198.1,772.3,198.1z"/>
	</g>
	<g>
		<path class="st0" d="M175.2,249.8v114.5c0,3.3,2.7,6,6,6h0c3.3,0,6-2.7,6-6V249.8c0-3.3-2.7-6-6-6h0
			C177.8,243.9,175.2,246.5,175.2,249.8z"/>
		<path class="st1" d="M153.6,249.8v114.5c0,3.3,2.7,6,6,6l0,0c3.3,0,6-2.7,6-6V249.8c0-3.3-2.7-6-6-6l0,0
			C156.3,243.9,153.6,246.5,153.6,249.8z"/>
		<path class="st1" d="M196.7,249.8v114.5c0,3.3,2.7,6,6,6l0,0c3.3,0,6-2.7,6-6V249.8c0-3.3-2.7-6-6-6l0,0
			C199.4,243.9,196.7,246.5,196.7,249.8z"/>
		<path class="st1" d="M132,249.8v114.5c0,3.3,2.7,6,6,6h0c3.3,0,6-2.7,6-6V249.8c0-3.3-2.7-6-6-6h0
			C134.7,243.9,132,246.5,132,249.8z"/>
		<path class="st0" d="M230.2,249.8v114.5c0,3.3-2.7,6-6,6h0c-3.3,0-6-2.7-6-6V249.8c0-3.3,2.7-6,6-6h0
			C227.6,243.9,230.2,246.5,230.2,249.8z"/>
		<path class="st1" d="M251.8,249.8v114.5c0,3.3-2.7,6-6,6h0c-3.3,0-6-2.7-6-6V249.8c0-3.3,2.7-6,6-6h0
			C249.1,243.9,251.8,246.5,251.8,249.8z"/>
		<path class="st1" d="M273.4,249.8v114.5c0,3.3-2.7,6-6,6l0,0c-3.3,0-6-2.7-6-6V249.8c0-3.3,2.7-6,6-6l0,0
			C270.7,243.9,273.4,246.5,273.4,249.8z"/>
	</g>
	<g>
		<path class="st0" d="M175.2,6v58.2c0,3.3,2.7,6,6,6h0c3.3,0,6-2.7,6-6V6c0-3.3-2.7-6-6-6h0C177.8,0,175.2,2.7,175.2,6z"/>
		<path class="st1" d="M153.6,6v58.2c0,3.3,2.7,6,6,6l0,0c3.3,0,6-2.7,6-6V6c0-3.3-2.7-6-6-6l0,0C156.3,0,153.6,2.7,153.6,6z"/>
		<path class="st1" d="M196.7,6v58.2c0,3.3,2.7,6,6,6l0,0c3.3,0,6-2.7,6-6V6c0-3.3-2.7-6-6-6l0,0C199.4,0,196.7,2.7,196.7,6z"/>
		<path class="st1" d="M132,6v58.2c0,3.3,2.7,6,6,6h0c3.3,0,6-2.7,6-6V6c0-3.3-2.7-6-6-6h0C134.7,0,132,2.7,132,6z"/>
		<path class="st0" d="M230.2,6v58.2c0,3.3-2.7,6-6,6h0c-3.3,0-6-2.7-6-6V6c0-3.3,2.7-6,6-6h0C227.6,0,230.2,2.7,230.2,6z"/>
		<path class="st1" d="M251.8,6v58.2c0,3.3-2.7,6-6,6h0c-3.3,0-6-2.7-6-6V6c0-3.3,2.7-6,6-6h0C249.1,0,251.8,2.7,251.8,6z"/>
		<path class="st1" d="M273.4,6v58.2c0,3.3-2.7,6-6,6l0,0c-3.3,0-6-2.7-6-6V6c0-3.3,2.7-6,6-6l0,0C270.7,0,273.4,2.7,273.4,6z"/>
	</g>
	<g>
		<g>
			<path class="st1" d="M305.4,251.6h-6.7v22h-2.7v-22h-6.6v-2.7h15.9V251.6z"/>
			<path class="st1" d="M299,273.8h-3.2v-22h-6.6v-3.2h16.5v3.2H299V273.8z M296.3,273.3h2.1v-22h6.7v-2.1h-15.4v2.1h6.6V273.3z"/>
		</g>
		<g>
			<path class="st1" d="M321.6,273.6H309v-24.6h12.4v2.7h-9.7v7.8h9.3v2.6h-9.3v8.9h9.9V273.6z"/>
			<path class="st1" d="M321.9,273.8h-13.2v-25.2h13v3.2H312v7.3h9.3v3.1H312v8.3h9.9V273.8z M309.3,273.3h12.1v-2.1h-9.9v-9.4h9.3
				v-2h-9.3v-8.4h9.7v-2.1h-11.9V273.3z"/>
		</g>
		<g>
			<path class="st1" d="M339.4,273.6h-2.7v-22h-9.5v22h-2.7v-24.6h14.9V273.6z"/>
			<path class="st1" d="M339.7,273.8h-3.3v-22h-9v22h-3.2v-25.2h15.5V273.8z M337,273.3h2.2v-24.1h-14.4v24.1h2.1v-22H337V273.3z"/>
		</g>
		<g>
			<path class="st1" d="M359.1,273.6h-2.7v-22h-7.1v15.2c0,2.2-0.4,4-1.1,5.2c-0.7,1.2-1.7,1.8-2.9,1.8c-1,0-1.9-0.1-2.6-0.3v-2.8
				c0.8,0.2,1.6,0.4,2.3,0.4c1.1,0,1.7-1.7,1.7-5v-17.1h12.4V273.6z"/>
			<path class="st1" d="M345.3,274.1c-1.1,0-2-0.1-2.7-0.3l-0.2-0.1v-3.4l0.4,0.1c0.8,0.2,1.5,0.4,2.2,0.4c0.9,0,1.4-1.6,1.4-4.7
				v-17.4h13v25.2h-3.3v-22h-6.6v14.9c0,2.3-0.4,4.1-1.1,5.3C347.7,273.4,346.6,274.1,345.3,274.1z M343,273.3
				c0.6,0.2,1.4,0.3,2.3,0.3c1.1,0,2-0.6,2.7-1.7c0.7-1.2,1-2.9,1-5.1v-15.4h7.7v22h2.2v-24.1H347V266c0,3.5-0.6,5.2-2,5.2
				c-0.6,0-1.3-0.1-2-0.3V273.3z"/>
		</g>
		<g>
			<path class="st1" d="M382.1,262.2c0,3.8-0.8,6.8-2.4,8.9c-1.6,2-3.8,3-6.6,3c-2.9,0-5.1-1-6.6-3c-1.6-2.1-2.4-5-2.4-8.9v-1.9
				c0-3.8,0.8-6.8,2.4-8.8c1.6-2,3.8-3,6.6-3c2.9,0,5.1,1,6.6,3c1.6,2,2.4,5,2.4,8.8V262.2z M379.2,261.9v-1.2
				c0-6.3-2.1-9.5-6.2-9.5c-4.2,0-6.2,3.2-6.2,9.5v1.2c0,6.3,2.1,9.5,6.2,9.5C377.1,271.4,379.2,268.2,379.2,261.9z"/>
			<path class="st1" d="M373,274.3c-2.9,0-5.2-1-6.8-3.1c-1.7-2.1-2.5-5.1-2.5-9v-1.9c0-3.9,0.8-6.9,2.5-9c1.6-2.1,3.9-3.1,6.8-3.1
				c2.9,0,5.2,1,6.8,3.1c1.7,2.1,2.5,5.1,2.5,9v1.9c0,3.9-0.8,6.9-2.5,9C378.2,273.2,375.9,274.3,373,274.3z M373,248.8
				c-2.7,0-4.9,1-6.4,2.9c-1.6,2-2.4,4.9-2.4,8.7v1.9c0,3.8,0.8,6.7,2.4,8.7c1.5,1.9,3.7,2.9,6.4,2.9c2.7,0,4.9-1,6.4-2.9
				c1.6-2,2.4-4.9,2.4-8.7v-1.9c0-3.8-0.8-6.7-2.4-8.7C377.9,249.7,375.7,248.8,373,248.8z M373,271.6c-4.3,0-6.5-3.3-6.5-9.8v-1.2
				c0-6.5,2.2-9.8,6.5-9.8c4.3,0,6.5,3.3,6.5,9.8v1.2C379.5,268.4,377.3,271.6,373,271.6z M373,251.4c-4,0-6,3-6,9.2v1.2
				c0,6.2,1.9,9.2,6,9.2c4,0,6-3,6-9.2v-1.2C378.9,254.4,377,251.4,373,251.4z"/>
		</g>
		<g>
			<path class="st1" d="M400.1,261.6c0,8.3-2.7,12.4-8,12.4c-2.3,0-4.2-0.6-5.6-1.9c-1.3-1.3-2-2.9-2-5h2.8c0,1.3,0.4,2.3,1.3,3.1
				c0.8,0.8,1.9,1.2,3.2,1.2c3.7,0,5.5-3.1,5.5-9.4h-7.6v-2.5h7.6c0-5.6-1.8-8.4-5.5-8.4c-1.3,0-2.3,0.4-3.2,1.1
				c-0.8,0.7-1.3,1.6-1.3,2.8h-2.8c0-1.9,0.7-3.5,2-4.6c1.3-1.2,3.2-1.8,5.5-1.8c2.5,0,4.4,0.9,5.7,2.7c1.5,2,2.2,4.9,2.2,8.8V261.6
				z"/>
			<path class="st1" d="M392.1,274.3c-2.4,0-4.3-0.7-5.8-2c-1.4-1.3-2.1-3-2.1-5.2v-0.3h3.4v0.3c0,1.2,0.4,2.2,1.2,2.9
				c0.8,0.7,1.8,1.1,3,1.1c3.4,0,5.2-2.9,5.2-8.9h-7.6v-3h7.6c-0.1-5.3-1.8-7.9-5.2-7.9c-1.2,0-2.2,0.3-3,1
				c-0.8,0.7-1.2,1.5-1.2,2.5v0.3h-3.4v-0.3c0-2,0.7-3.6,2.1-4.9c1.4-1.2,3.3-1.8,5.7-1.8c2.5,0,4.5,1,6,2.8c1.5,2,2.3,5,2.3,8.9
				v1.6C400.3,270,397.6,274.3,392.1,274.3z M384.8,267.4c0.1,1.8,0.7,3.3,1.9,4.5c1.3,1.2,3.1,1.8,5.4,1.8c5.2,0,7.7-4,7.7-12.1
				V260c0-3.8-0.7-6.7-2.2-8.6c-1.3-1.7-3.2-2.6-5.5-2.6c-2.3,0-4.1,0.6-5.4,1.7c-1.2,1.1-1.9,2.5-1.9,4.2h2.3
				c0.1-1.1,0.5-2,1.3-2.7c0.9-0.7,2-1.1,3.3-1.1c3.8,0,5.8,2.9,5.8,8.7v0.3h-7.6v1.9h7.6v0.3c0,6.4-1.9,9.7-5.8,9.7
				c-1.3,0-2.5-0.4-3.3-1.2c-0.8-0.8-1.3-1.8-1.3-3H384.8z"/>
		</g>
		<g>
			<path class="st1" d="M420.2,273.6h-2.7v-11.5h-9.9v11.5H405v-24.6h2.7v10.6h9.9v-10.6h2.7V273.6z"/>
			<path class="st1" d="M420.5,273.8h-3.2v-11.5h-9.3v11.5h-3.2v-25.2h3.2v10.6h9.3v-10.6h3.2V273.8z M417.8,273.3h2.1v-24.1h-2.1
				v10.6h-10.4v-10.6h-2.1v24.1h2.1v-11.5h10.4V273.3z"/>
		</g>
		<g>
			<path class="st1" d="M438.4,273.6h-12.6v-24.6h12.4v2.7h-9.7v7.8h9.3v2.6h-9.3v8.9h9.9V273.6z"/>
			<path class="st1" d="M438.6,273.8h-13.2v-25.2h13v3.2h-9.7v7.3h9.3v3.1h-9.3v8.3h9.9V273.8z M426,273.3h12.1v-2.1h-9.9v-9.4h9.3
				v-2h-9.3v-8.4h9.7v-2.1H426V273.3z"/>
		</g>
		<g>
			<path class="st1" d="M454.8,255.8c0,2.4-0.6,4.2-1.9,5.5c-1.2,1.3-3,2-5.4,2c-1.4,0-2.6-0.1-3.6-0.4v10.6h-2.7v-24.6h5
				c2.9,0,4.9,0.4,6,1.3C454,251.6,454.8,253.5,454.8,255.8z M452,255.9c0-1.6-0.4-2.8-1.1-3.4c-0.7-0.6-1.9-1-3.6-1H444v8.7
				c1.3,0.4,2.6,0.6,3.8,0.6C450.6,260.8,452,259.2,452,255.9z"/>
			<path class="st1" d="M444.2,273.8H441v-25.2h5.3c3,0,5,0.4,6.2,1.4c1.7,1.4,2.6,3.4,2.6,5.8c0,2.4-0.6,4.4-1.9,5.7
				c-1.3,1.4-3.2,2.1-5.6,2.1c-1.2,0-2.4-0.1-3.3-0.3V273.8z M441.5,273.3h2.2v-10.7l0.3,0.1c1,0.3,2.2,0.4,3.6,0.4
				c2.2,0,4-0.6,5.2-1.9c1.2-1.2,1.8-3,1.8-5.3c0-2.3-0.8-4.1-2.4-5.4c-1-0.8-3-1.2-5.8-1.2h-4.8V273.3z M447.7,261.1
				c-1.2,0-2.5-0.2-3.9-0.6l-0.2-0.1v-9.1h3.6c1.8,0,3,0.4,3.8,1c0.8,0.7,1.2,1.9,1.2,3.6C452.3,259.3,450.7,261.1,447.7,261.1z
				 M444.2,260c1.2,0.4,2.4,0.5,3.5,0.5c2.7,0,4-1.5,4-4.6c0-1.6-0.3-2.7-1-3.2c-0.7-0.6-1.8-0.9-3.4-0.9h-3.1V260z"/>
		</g>
		<g>
			<path class="st1" d="M469.3,251.6h-8.5v21.9h-2.7v-24.6h11.2V251.6z"/>
			<path class="st1" d="M461.1,273.8h-3.3v-25.2h11.8v3.3h-8.5V273.8z M458.4,273.3h2.2v-21.9h8.5v-2.2h-10.7V273.3z"/>
		</g>
		<g>
			<path class="st1" d="M488,262.2c0,3.8-0.8,6.8-2.4,8.9c-1.6,2-3.8,3-6.6,3s-5.1-1-6.6-3c-1.6-2.1-2.4-5-2.4-8.9v-1.9
				c0-3.8,0.8-6.8,2.4-8.8c1.6-2,3.8-3,6.6-3s5.1,1,6.6,3c1.6,2,2.4,5,2.4,8.8V262.2z M485.1,261.9v-1.2c0-6.3-2.1-9.5-6.2-9.5
				c-4.2,0-6.2,3.2-6.2,9.5v1.2c0,6.3,2.1,9.5,6.2,9.5C483.1,271.4,485.1,268.2,485.1,261.9z"/>
			<path class="st1" d="M478.9,274.3c-2.9,0-5.2-1-6.8-3.1c-1.7-2.1-2.5-5.1-2.5-9v-1.9c0-3.9,0.8-6.9,2.5-9
				c1.6-2.1,3.9-3.1,6.8-3.1c2.9,0,5.2,1,6.8,3.1c1.7,2.1,2.5,5.1,2.5,9v1.9c0,3.9-0.8,6.9-2.5,9
				C484.1,273.2,481.8,274.3,478.9,274.3z M478.9,248.8c-2.7,0-4.9,1-6.4,2.9c-1.6,2-2.4,4.9-2.4,8.7v1.9c0,3.8,0.8,6.7,2.4,8.7
				c1.5,1.9,3.7,2.9,6.4,2.9c2.8,0,4.9-1,6.4-2.9c1.6-2,2.4-4.9,2.4-8.7v-1.9c0-3.8-0.8-6.7-2.4-8.7
				C483.8,249.7,481.6,248.8,478.9,248.8z M478.9,271.6c-4.3,0-6.5-3.3-6.5-9.8v-1.2c0-6.5,2.2-9.8,6.5-9.8c4.3,0,6.5,3.3,6.5,9.8
				v1.2C485.4,268.4,483.2,271.6,478.9,271.6z M478.9,251.4c-4,0-6,3-6,9.2v1.2c0,6.2,1.9,9.2,6,9.2s6-3,6-9.2v-1.2
				C484.9,254.4,482.9,251.4,478.9,251.4z"/>
		</g>
		<g>
			<path class="st1" d="M507.7,273.6H505v-22h-9.5v22h-2.7v-24.6h14.9V273.6z"/>
			<path class="st1" d="M508,273.8h-3.3v-22h-9v22h-3.2v-25.2H508V273.8z M505.3,273.3h2.2v-24.1h-14.4v24.1h2.1v-22h10.1V273.3z"/>
		</g>
		<g>
			<path class="st1" d="M526.8,255.8c0,2.4-0.6,4.2-1.9,5.5c-1.2,1.3-3,2-5.4,2c-1.4,0-2.6-0.1-3.6-0.4v10.6h-2.7v-24.6h5
				c2.9,0,4.9,0.4,6,1.3C525.9,251.6,526.8,253.5,526.8,255.8z M524,255.9c0-1.6-0.4-2.8-1.1-3.4c-0.7-0.6-1.9-1-3.6-1h-3.4v8.7
				c1.3,0.4,2.6,0.6,3.8,0.6C522.5,260.8,524,259.2,524,255.9z"/>
			<path class="st1" d="M516.2,273.8h-3.3v-25.2h5.3c3,0,5,0.4,6.2,1.4c1.7,1.4,2.6,3.4,2.6,5.8c0,2.4-0.6,4.4-1.9,5.7
				c-1.3,1.4-3.2,2.1-5.6,2.1c-1.2,0-2.4-0.1-3.3-0.3V273.8z M513.5,273.3h2.2v-10.7l0.3,0.1c1,0.3,2.2,0.4,3.6,0.4
				c2.2,0,4-0.6,5.2-1.9c1.2-1.2,1.8-3,1.8-5.3c0-2.3-0.8-4.1-2.4-5.4c-1-0.8-3-1.2-5.8-1.2h-4.8V273.3z M519.7,261.1
				c-1.2,0-2.5-0.2-3.9-0.6l-0.2-0.1v-9.1h3.6c1.8,0,3,0.4,3.8,1c0.8,0.7,1.2,1.9,1.2,3.6C524.2,259.3,522.7,261.1,519.7,261.1z
				 M516.2,260c1.2,0.4,2.4,0.5,3.5,0.5c2.7,0,4-1.5,4-4.6c0-1.6-0.3-2.7-1-3.2c-0.7-0.6-1.8-0.9-3.4-0.9h-3.1V260z"/>
		</g>
		<g>
			<path class="st1" d="M547.6,262.2c0,3.8-0.8,6.8-2.4,8.9c-1.6,2-3.8,3-6.6,3c-2.9,0-5.1-1-6.6-3c-1.6-2.1-2.4-5-2.4-8.9v-1.9
				c0-3.8,0.8-6.8,2.4-8.8c1.6-2,3.8-3,6.6-3c2.9,0,5.1,1,6.6,3c1.6,2,2.4,5,2.4,8.8V262.2z M544.7,261.9v-1.2
				c0-6.3-2.1-9.5-6.2-9.5c-4.2,0-6.2,3.2-6.2,9.5v1.2c0,6.3,2.1,9.5,6.2,9.5C542.7,271.4,544.7,268.2,544.7,261.9z"/>
			<path class="st1" d="M538.5,274.3c-2.9,0-5.2-1-6.8-3.1c-1.7-2.1-2.5-5.1-2.5-9v-1.9c0-3.9,0.8-6.9,2.5-9
				c1.6-2.1,3.9-3.1,6.8-3.1c2.9,0,5.2,1,6.8,3.1c1.7,2.1,2.5,5.1,2.5,9v1.9c0,3.9-0.8,6.9-2.5,9
				C543.7,273.2,541.4,274.3,538.5,274.3z M538.5,248.8c-2.7,0-4.9,1-6.4,2.9c-1.6,2-2.4,4.9-2.4,8.7v1.9c0,3.8,0.8,6.7,2.4,8.7
				c1.5,1.9,3.7,2.9,6.4,2.9c2.8,0,4.9-1,6.4-2.9c1.6-2,2.4-4.9,2.4-8.7v-1.9c0-3.8-0.8-6.7-2.4-8.7
				C543.4,249.7,541.3,248.8,538.5,248.8z M538.5,271.6c-4.3,0-6.5-3.3-6.5-9.8v-1.2c0-6.5,2.2-9.8,6.5-9.8s6.5,3.3,6.5,9.8v1.2
				C545,268.4,542.8,271.6,538.5,271.6z M538.5,251.4c-4,0-6,3-6,9.2v1.2c0,6.2,1.9,9.2,6,9.2c4,0,6-3,6-9.2v-1.2
				C544.5,254.4,542.5,251.4,538.5,251.4z"/>
		</g>
		<g>
			<path class="st1" d="M573.7,261.1c0,3.4-1,5.9-3,7.6c-1.5,1.2-3.2,1.9-5.3,1.9h-1.6v3.5h-2.6v-3.5h-1.6c-2.1,0-3.8-0.6-5.3-1.9
				c-2-1.7-3-4.2-3-7.6c0-3.4,1-5.9,3-7.6c1.5-1.2,3.2-1.9,5.3-1.9h1.6v-3.1h2.6v3.1h1.6c2,0,3.8,0.6,5.3,1.9
				C572.7,255.1,573.7,257.7,573.7,261.1z M561.4,268.2v-14.3h-1.6c-3.8,0-5.7,2.4-5.7,7.1c0,4.7,1.9,7.1,5.7,7.1H561.4z
				 M570.9,261.1c0-4.8-1.9-7.1-5.6-7.1h-1.5v14.3h1.5C569,268.2,570.9,265.8,570.9,261.1z"/>
			<path class="st1" d="M564.1,274.3H561v-3.5h-1.3c-2.1,0-4-0.7-5.5-1.9c-2-1.7-3.1-4.3-3.1-7.8c0-3.5,1-6.1,3.1-7.8
				c1.5-1.3,3.4-1.9,5.5-1.9h1.3v-3.1h3.1v3.1h1.4c2.1,0,3.9,0.6,5.5,1.9c2,1.7,3.1,4.3,3.1,7.8c0,3.5-1,6.1-3.1,7.8
				c-1.5,1.3-3.4,1.9-5.5,1.9h-1.4V274.3z M561.5,273.7h2v-3.5h1.9c2,0,3.7-0.6,5.1-1.8c1.9-1.6,2.9-4.1,2.9-7.4
				c0-3.3-1-5.8-2.9-7.4c-1.4-1.2-3.1-1.8-5.1-1.8h-1.9v-3.1h-2v3.1h-1.9c-2,0-3.7,0.6-5.1,1.8c-1.9,1.6-2.9,4.1-2.9,7.4
				c0,3.3,1,5.8,2.9,7.4c1.4,1.2,3.1,1.8,5.1,1.8h1.9V273.7z M565.3,268.5h-1.8v-14.8h1.8c3.9,0,5.9,2.5,5.9,7.4
				C571.2,266,569.2,268.5,565.3,268.5z M564,267.9h1.3c3.6,0,5.4-2.2,5.4-6.8c0-4.6-1.8-6.9-5.4-6.9H564V267.9z M561.6,268.5h-1.8
				c-3.9,0-5.9-2.5-5.9-7.4c0-4.9,2-7.4,5.9-7.4h1.8V268.5z M559.8,254.2c-3.6,0-5.4,2.2-5.4,6.9c0,4.6,1.8,6.8,5.4,6.8h1.3v-13.7
				H559.8z"/>
		</g>
		<g>
			<path class="st1" d="M607.7,273.6h-2.6v-21.2H605l-6.6,21.2h-2.5l-6.6-21.2v21.2h-2.6v-24.6h4.2l6.3,20.5l6.3-20.5h4.2V273.6z"/>
			<path class="st1" d="M607.9,273.8h-3.2V254l-6.2,19.9h-3l-0.1-0.2l-6.1-19.5v19.7h-3.2v-25.2h4.7l0.1,0.2l6,19.7l6.1-19.9h4.7
				V273.8z M605.3,273.3h2.1v-24.1h-3.8l-6.5,21.2l-6.5-21.2h-3.8v24.1h2.1v-22.7l7.1,22.7h2.1l6.6-21.2h0.5l0.1,0.3V273.3z"/>
		</g>
		<g>
			<path class="st1" d="M625.8,273.6h-12.6v-24.6h12.4v2.7h-9.7v7.8h9.3v2.6h-9.3v8.9h9.9V273.6z"/>
			<path class="st1" d="M626.1,273.8h-13.2v-25.2h13v3.2h-9.7v7.3h9.3v3.1h-9.3v8.3h9.9V273.8z M613.5,273.3h12.1v-2.1h-9.9v-9.4
				h9.3v-2h-9.3v-8.4h9.7v-2.1h-11.9V273.3z"/>
		</g>
		<g>
			<path class="st1" d="M642.5,251.6h-6.7v22h-2.7v-22h-6.6v-2.7h15.9V251.6z"/>
			<path class="st1" d="M636.1,273.8h-3.2v-22h-6.6v-3.2h16.5v3.2h-6.7V273.8z M633.4,273.3h2.1v-22h6.7v-2.1h-15.4v2.1h6.6V273.3z"
				/>
		</g>
		<g>
			<path class="st1" d="M659.5,255.8c0,2.4-0.6,4.2-1.9,5.5c-1.2,1.3-3,2-5.4,2c-1.4,0-2.6-0.1-3.6-0.4v10.6H646v-24.6h5
				c2.9,0,4.9,0.4,6,1.3C658.7,251.6,659.5,253.5,659.5,255.8z M656.7,255.9c0-1.6-0.4-2.8-1.1-3.4c-0.7-0.6-1.9-1-3.6-1h-3.4v8.7
				c1.3,0.4,2.6,0.6,3.8,0.6C655.3,260.8,656.7,259.2,656.7,255.9z"/>
			<path class="st1" d="M649,273.8h-3.3v-25.2h5.3c3,0,5,0.4,6.2,1.4c1.7,1.4,2.6,3.4,2.6,5.8c0,2.4-0.6,4.4-1.9,5.7
				c-1.3,1.4-3.2,2.1-5.6,2.1c-1.2,0-2.4-0.1-3.3-0.3V273.8z M646.3,273.3h2.2v-10.7l0.3,0.1c1,0.3,2.2,0.4,3.6,0.4
				c2.2,0,4-0.6,5.2-1.9c1.2-1.2,1.8-3,1.8-5.3c0-2.3-0.8-4.1-2.4-5.4c-1-0.8-3-1.2-5.8-1.2h-4.8V273.3z M652.5,261.1
				c-1.2,0-2.5-0.2-3.9-0.6l-0.2-0.1v-9.1h3.6c1.8,0,3,0.4,3.8,1c0.8,0.7,1.2,1.9,1.2,3.6C657,259.3,655.5,261.1,652.5,261.1z
				 M649,260c1.2,0.4,2.4,0.5,3.5,0.5c2.7,0,4-1.5,4-4.6c0-1.6-0.3-2.6-1-3.2c-0.7-0.6-1.8-0.9-3.4-0.9H649V260z"/>
		</g>
		<g>
			<path class="st1" d="M680.4,262.2c0,3.8-0.8,6.8-2.4,8.9c-1.6,2-3.8,3-6.6,3s-5.1-1-6.6-3c-1.6-2.1-2.4-5-2.4-8.9v-1.9
				c0-3.8,0.8-6.8,2.4-8.8c1.6-2,3.8-3,6.6-3s5.1,1,6.6,3c1.6,2,2.4,5,2.4,8.8V262.2z M677.5,261.9v-1.2c0-6.3-2.1-9.5-6.2-9.5
				c-4.2,0-6.2,3.2-6.2,9.5v1.2c0,6.3,2.1,9.5,6.2,9.5C675.4,271.4,677.5,268.2,677.5,261.9z"/>
			<path class="st1" d="M671.3,274.3c-2.9,0-5.2-1-6.8-3.1c-1.7-2.1-2.5-5.1-2.5-9v-1.9c0-3.9,0.8-6.9,2.5-9
				c1.6-2.1,3.9-3.1,6.8-3.1s5.2,1,6.8,3.1c1.7,2.1,2.5,5.1,2.5,9v1.9c0,3.9-0.8,6.9-2.5,9C676.5,273.2,674.2,274.3,671.3,274.3z
				 M671.3,248.8c-2.7,0-4.9,1-6.4,2.9c-1.6,2-2.4,4.9-2.4,8.7v1.9c0,3.8,0.8,6.7,2.4,8.7c1.5,1.9,3.7,2.9,6.4,2.9s4.9-1,6.4-2.9
				c1.6-2,2.4-4.9,2.4-8.7v-1.9c0-3.8-0.8-6.7-2.4-8.7C676.2,249.7,674,248.8,671.3,248.8z M671.3,271.6c-4.3,0-6.5-3.3-6.5-9.8
				v-1.2c0-6.5,2.2-9.8,6.5-9.8s6.5,3.3,6.5,9.8v1.2C677.8,268.4,675.6,271.6,671.3,271.6z M671.3,251.4c-4,0-6,3-6,9.2v1.2
				c0,6.2,1.9,9.2,6,9.2c4,0,6-3,6-9.2v-1.2C677.2,254.4,675.3,251.4,671.3,251.4z"/>
		</g>
		<g>
			<path class="st1" d="M699.4,273.6h-2.7v-22h-7.1v15.2c0,2.2-0.4,4-1.1,5.2c-0.7,1.2-1.7,1.8-2.9,1.8c-1,0-1.9-0.1-2.6-0.3v-2.8
				c0.8,0.2,1.6,0.4,2.3,0.4c1.1,0,1.7-1.7,1.7-5v-17.1h12.4V273.6z"/>
			<path class="st1" d="M685.5,274.1c-1.1,0-2-0.1-2.7-0.3l-0.2-0.1v-3.4l0.4,0.1c0.8,0.2,1.5,0.4,2.2,0.4c0.9,0,1.4-1.6,1.4-4.7
				v-17.4h13v25.2h-3.3v-22h-6.6v14.9c0,2.3-0.4,4.1-1.1,5.3C687.9,273.4,686.9,274.1,685.5,274.1z M683.2,273.3
				c0.6,0.2,1.4,0.3,2.3,0.3c1.1,0,2-0.6,2.7-1.7c0.7-1.2,1-2.9,1-5.1v-15.4h7.7v22h2.2v-24.1h-11.9V266c0,3.5-0.6,5.2-2,5.2
				c-0.6,0-1.3-0.1-2-0.3V273.3z"/>
		</g>
		<g>
			<path class="st1" d="M722.3,262.2c0,3.8-0.8,6.8-2.4,8.9c-1.6,2-3.8,3-6.6,3c-2.9,0-5.1-1-6.6-3c-1.6-2.1-2.4-5-2.4-8.9v-1.9
				c0-3.8,0.8-6.8,2.4-8.8c1.6-2,3.8-3,6.6-3c2.9,0,5.1,1,6.6,3c1.6,2,2.4,5,2.4,8.8V262.2z M719.5,261.9v-1.2
				c0-6.3-2.1-9.5-6.2-9.5c-4.2,0-6.2,3.2-6.2,9.5v1.2c0,6.3,2.1,9.5,6.2,9.5C717.4,271.4,719.5,268.2,719.5,261.9z"/>
			<path class="st1" d="M713.2,274.3c-2.9,0-5.2-1-6.8-3.1c-1.7-2.1-2.5-5.1-2.5-9v-1.9c0-3.9,0.8-6.9,2.5-9
				c1.6-2.1,3.9-3.1,6.8-3.1c2.9,0,5.2,1,6.8,3.1c1.7,2.1,2.5,5.1,2.5,9v1.9c0,3.9-0.8,6.9-2.5,9
				C718.5,273.2,716.2,274.3,713.2,274.3z M713.2,248.8c-2.7,0-4.9,1-6.4,2.9c-1.6,2-2.4,4.9-2.4,8.7v1.9c0,3.8,0.8,6.7,2.4,8.7
				c1.5,1.9,3.7,2.9,6.4,2.9c2.8,0,4.9-1,6.4-2.9c1.6-2,2.4-4.9,2.4-8.7v-1.9c0-3.8-0.8-6.7-2.4-8.7
				C718.1,249.7,716,248.8,713.2,248.8z M713.2,271.6c-4.3,0-6.5-3.3-6.5-9.8v-1.2c0-6.5,2.2-9.8,6.5-9.8c4.3,0,6.5,3.3,6.5,9.8v1.2
				C719.7,268.4,717.5,271.6,713.2,271.6z M713.2,251.4c-4,0-6,3-6,9.2v1.2c0,6.2,1.9,9.2,6,9.2c4,0,6-3,6-9.2v-1.2
				C719.2,254.4,717.2,251.4,713.2,251.4z"/>
		</g>
		<g>
			<path class="st1" d="M738.4,251.6h-8.5v21.9h-2.7v-24.6h11.2V251.6z"/>
			<path class="st1" d="M730.1,273.8h-3.3v-25.2h11.8v3.3h-8.5V273.8z M727.4,273.3h2.2v-21.9h8.5v-2.2h-10.7V273.3z"/>
		</g>
		<g>
			<path class="st1" d="M757.6,273.6h-2.7v-19.6l-10.4,19.6h-2.7v-24.6h2.7v19.6l10.4-19.6h2.7V273.6z"/>
			<path class="st1" d="M757.9,273.8h-3.3v-18.8l-9.9,18.8h-3.1v-25.2h3.3v18.8l9.9-18.8h3.1V273.8z M755.2,273.3h2.2v-24.1h-2.3
				l-10.8,20.4v-20.4h-2.2v24.1h2.3l10.8-20.4V273.3z"/>
		</g>
		<g>
			<path class="st1" d="M776.7,273.6h-2.7V263c-1.2-0.2-2.5-0.3-3.8-0.3c-1.5,0-2.6,0.4-3.3,1.3c-0.8,1-1.2,2.8-1.2,5.3
				c0,1.7-0.1,3.2-0.4,4.3h-2.9c0.3-0.9,0.5-2.5,0.5-4.5c0-3.7,1.1-6.2,3.2-7.5c-2.1-1.1-3.2-3.1-3.2-6.1c0-2,0.6-3.6,1.9-4.8
				c1.3-1.2,3.1-1.8,5.4-1.8h6.4V273.6z M774.1,260.2v-8.7h-3.8c-1.5,0-2.7,0.3-3.3,1c-0.7,0.7-1,1.7-1,3.3c0,1.5,0.4,2.6,1.1,3.5
				c0.8,0.9,1.9,1.3,3.3,1.3C771.6,260.5,772.9,260.4,774.1,260.2z"/>
			<path class="st1" d="M777,273.8h-3.2v-10.6c-1.2-0.2-2.3-0.3-3.5-0.3c-1.4,0-2.5,0.4-3.1,1.2c-0.7,0.9-1.1,2.7-1.1,5.1
				c0,1.7-0.1,3.2-0.4,4.4l-0.1,0.2h-3.5l0.1-0.4c0.3-0.9,0.5-2.4,0.5-4.5c0-3.5,1-6,3-7.4c-2-1.2-3-3.2-3-6.1c0-2.1,0.7-3.8,1.9-5
				c1.3-1.2,3.2-1.8,5.6-1.8h6.7V273.8z M774.3,273.3h2.1v-24.1h-6.1c-2.3,0-4,0.6-5.2,1.7c-1.2,1.1-1.8,2.6-1.8,4.6
				c0,2.9,1,4.8,3.1,5.8l0.4,0.2l-0.4,0.3c-2.1,1.2-3.1,3.7-3.1,7.2c0,1.9-0.1,3.3-0.4,4.3h2.3c0.2-1.1,0.4-2.4,0.4-4
				c0-2.6,0.4-4.4,1.2-5.5c0.7-0.9,1.9-1.4,3.5-1.4c1.3,0,2.5,0.1,3.8,0.3l0.2,0V273.3z M770.3,260.8c-1.5,0-2.7-0.5-3.5-1.4
				c-0.8-0.9-1.2-2.1-1.2-3.6c0-1.6,0.4-2.7,1.1-3.5c0.7-0.7,1.9-1.1,3.5-1.1h4.1v9.2l-0.2,0C772.9,260.7,771.6,260.8,770.3,260.8z
				 M770.2,251.8c-1.5,0-2.5,0.3-3.2,0.9c-0.6,0.6-1,1.6-1,3.1c0,1.4,0.4,2.5,1.1,3.3c0.7,0.8,1.8,1.2,3.1,1.2
				c1.2,0,2.4-0.1,3.5-0.3v-8.2H770.2z"/>
		</g>
		<g>
			<path class="st1" d="M305.4,298.6h-6.7v22h-2.7v-22h-6.6v-2.7h15.9V298.6z"/>
			<path class="st1" d="M299,320.8h-3.2v-22h-6.6v-3.2h16.5v3.2H299V320.8z M296.3,320.3h2.1v-22h6.7v-2.1h-15.4v2.1h6.6V320.3z"/>
		</g>
		<g>
			<path class="st1" d="M321.6,320.6H309v-24.6h12.4v2.7h-9.7v7.8h9.3v2.6h-9.3v8.9h9.9V320.6z"/>
			<path class="st1" d="M321.9,320.8h-13.2v-25.2h13v3.2H312v7.3h9.3v3.1H312v8.3h9.9V320.8z M309.3,320.3h12.1v-2.1h-9.9v-9.4h9.3
				v-2h-9.3v-8.4h9.7v-2.1h-11.9V320.3z"/>
		</g>
		<g>
			<path class="st1" d="M339.4,320.6h-2.7v-22h-9.5v22h-2.7v-24.6h14.9V320.6z"/>
			<path class="st1" d="M339.7,320.8h-3.3v-22h-9v22h-3.2v-25.2h15.5V320.8z M337,320.3h2.2v-24.1h-14.4v24.1h2.1v-22H337V320.3z"/>
		</g>
		<g>
			<path class="st1" d="M359.1,320.6h-2.7v-22h-7.1v15.2c0,2.2-0.4,4-1.1,5.2c-0.7,1.2-1.7,1.8-2.9,1.8c-1,0-1.9-0.1-2.6-0.3v-2.8
				c0.8,0.2,1.6,0.4,2.3,0.4c1.1,0,1.7-1.7,1.7-5v-17.1h12.4V320.6z"/>
			<path class="st1" d="M345.3,321.1c-1.1,0-2-0.1-2.7-0.3l-0.2-0.1v-3.4l0.4,0.1c0.8,0.2,1.6,0.4,2.2,0.4c0.9,0,1.4-1.6,1.4-4.7
				v-17.4h13v25.2h-3.3v-22h-6.6v14.9c0,2.3-0.4,4.1-1.1,5.3C347.7,320.4,346.6,321.1,345.3,321.1z M343,320.3
				c0.6,0.2,1.4,0.3,2.3,0.3c1.1,0,2-0.6,2.7-1.7c0.7-1.2,1-2.9,1-5.1v-15.4h7.7v22h2.2v-24.1H347V313c0,3.5-0.6,5.2-2,5.2
				c-0.6,0-1.3-0.1-2-0.3V320.3z"/>
		</g>
		<g>
			<path class="st1" d="M382.1,309.2c0,3.8-0.8,6.8-2.4,8.9c-1.6,2-3.8,3-6.6,3c-2.9,0-5.1-1-6.6-3c-1.6-2.1-2.4-5-2.4-8.9v-1.9
				c0-3.8,0.8-6.8,2.4-8.8c1.6-2,3.8-3,6.6-3c2.9,0,5.1,1,6.6,3c1.6,2,2.4,5,2.4,8.8V309.2z M379.2,308.9v-1.2
				c0-6.3-2.1-9.5-6.2-9.5c-4.2,0-6.2,3.2-6.2,9.5v1.2c0,6.3,2.1,9.5,6.2,9.5C377.1,318.4,379.2,315.2,379.2,308.9z"/>
			<path class="st1" d="M373,321.3c-2.9,0-5.2-1-6.8-3.1c-1.7-2.1-2.5-5.1-2.5-9v-1.9c0-3.9,0.8-6.9,2.5-9c1.6-2.1,3.9-3.1,6.8-3.1
				c2.9,0,5.2,1,6.8,3.1c1.7,2.1,2.5,5.1,2.5,9v1.9c0,3.9-0.8,6.9-2.5,9C378.2,320.2,375.9,321.3,373,321.3z M373,295.8
				c-2.8,0-4.9,1-6.4,2.9c-1.6,2-2.4,4.9-2.4,8.7v1.9c0,3.8,0.8,6.7,2.4,8.7c1.5,1.9,3.7,2.9,6.4,2.9c2.7,0,4.9-1,6.4-2.9
				c1.6-2,2.4-4.9,2.4-8.7v-1.9c0-3.8-0.8-6.7-2.4-8.7C377.9,296.7,375.7,295.8,373,295.8z M373,318.6c-4.3,0-6.5-3.3-6.5-9.8v-1.2
				c0-6.5,2.2-9.8,6.5-9.8c4.3,0,6.5,3.3,6.5,9.8v1.2C379.5,315.4,377.3,318.6,373,318.6z M373,298.4c-4,0-6,3-6,9.2v1.2
				c0,6.2,1.9,9.2,6,9.2c4,0,6-3,6-9.2v-1.2C378.9,301.4,377,298.4,373,298.4z"/>
		</g>
		<g>
			<path class="st1" d="M400.1,308.6c0,8.3-2.7,12.4-8,12.4c-2.3,0-4.2-0.6-5.6-1.9c-1.3-1.3-2-2.9-2-5h2.8c0,1.3,0.4,2.3,1.3,3.1
				c0.8,0.8,1.9,1.2,3.2,1.2c3.7,0,5.5-3.1,5.5-9.4h-7.6v-2.5h7.6c0-5.6-1.8-8.4-5.5-8.4c-1.3,0-2.3,0.4-3.2,1.1
				c-0.8,0.7-1.3,1.6-1.3,2.8h-2.8c0-1.9,0.7-3.5,2-4.6c1.3-1.2,3.2-1.8,5.5-1.8c2.5,0,4.4,0.9,5.7,2.7c1.5,2,2.2,4.9,2.2,8.8V308.6
				z"/>
			<path class="st1" d="M392.1,321.3c-2.4,0-4.3-0.7-5.8-2c-1.4-1.3-2.1-3-2.1-5.2v-0.3h3.4v0.3c0,1.2,0.4,2.2,1.2,2.9
				c0.8,0.7,1.8,1.1,3,1.1c3.4,0,5.2-2.9,5.2-8.9h-7.6v-3h7.6c-0.1-5.3-1.8-7.9-5.2-7.9c-1.2,0-2.2,0.3-3,1
				c-0.8,0.7-1.2,1.5-1.2,2.5v0.3h-3.4v-0.3c0-2,0.7-3.6,2.1-4.9c1.4-1.2,3.3-1.8,5.7-1.8c2.5,0,4.5,1,6,2.8c1.5,2,2.3,5,2.3,8.9
				v1.6C400.3,317,397.6,321.3,392.1,321.3z M384.8,314.4c0.1,1.8,0.7,3.3,1.9,4.5c1.3,1.2,3.1,1.8,5.4,1.8c5.2,0,7.7-4,7.7-12.1
				V307c0-3.8-0.7-6.7-2.2-8.6c-1.3-1.7-3.2-2.6-5.5-2.6c-2.3,0-4.1,0.6-5.4,1.7c-1.2,1.1-1.9,2.5-1.9,4.2h2.3
				c0.1-1.1,0.5-2,1.3-2.7c0.9-0.7,2-1.1,3.3-1.1c3.8,0,5.8,2.9,5.8,8.7v0.3h-7.6v1.9h7.6v0.3c0,6.4-1.9,9.7-5.8,9.7
				c-1.3,0-2.5-0.4-3.3-1.2c-0.8-0.8-1.3-1.8-1.3-3H384.8z"/>
		</g>
		<g>
			<path class="st1" d="M420.2,320.6h-2.7v-11.5h-9.9v11.5H405v-24.6h2.7v10.6h9.9v-10.6h2.7V320.6z"/>
			<path class="st1" d="M420.5,320.8h-3.2v-11.5h-9.3v11.5h-3.2v-25.2h3.2v10.6h9.3v-10.6h3.2V320.8z M417.8,320.3h2.1v-24.1h-2.1
				v10.6h-10.4v-10.6h-2.1v24.1h2.1v-11.5h10.4V320.3z"/>
		</g>
		<g>
			<path class="st1" d="M438.4,320.6h-12.6v-24.6h12.4v2.7h-9.7v7.8h9.3v2.6h-9.3v8.9h9.9V320.6z"/>
			<path class="st1" d="M438.6,320.8h-13.2v-25.2h13v3.2h-9.7v7.3h9.3v3.1h-9.3v8.3h9.9V320.8z M426,320.3h12.1v-2.1h-9.9v-9.4h9.3
				v-2h-9.3v-8.4h9.7v-2.1H426V320.3z"/>
		</g>
		<g>
			<path class="st1" d="M454.8,302.8c0,2.4-0.6,4.2-1.9,5.5c-1.2,1.3-3,2-5.4,2c-1.4,0-2.6-0.1-3.6-0.4v10.6h-2.7v-24.6h5
				c2.9,0,4.9,0.4,6,1.3C454,298.6,454.8,300.5,454.8,302.8z M452,302.9c0-1.6-0.4-2.8-1.1-3.4c-0.7-0.6-1.9-1-3.6-1H444v8.7
				c1.3,0.4,2.6,0.6,3.8,0.6C450.6,307.8,452,306.2,452,302.9z"/>
			<path class="st1" d="M444.2,320.8H441v-25.2h5.3c3,0,5,0.4,6.2,1.4c1.7,1.4,2.6,3.4,2.6,5.8c0,2.4-0.6,4.4-1.9,5.7
				c-1.3,1.4-3.2,2.1-5.6,2.1c-1.2,0-2.4-0.1-3.3-0.3V320.8z M441.5,320.3h2.2v-10.7l0.3,0.1c1,0.3,2.2,0.4,3.6,0.4
				c2.2,0,4-0.6,5.2-1.9c1.2-1.2,1.8-3,1.8-5.3c0-2.3-0.8-4.1-2.4-5.4c-1-0.8-3-1.2-5.8-1.2h-4.8V320.3z M447.7,308.1
				c-1.2,0-2.5-0.2-3.9-0.6l-0.2-0.1v-9.1h3.6c1.8,0,3,0.3,3.8,1c0.8,0.7,1.2,1.9,1.2,3.6C452.3,306.3,450.7,308.1,447.7,308.1z
				 M444.2,307c1.2,0.4,2.4,0.5,3.5,0.5c2.7,0,4-1.5,4-4.6c0-1.6-0.3-2.6-1-3.2c-0.7-0.6-1.8-0.9-3.4-0.9h-3.1V307z"/>
		</g>
		<g>
			<path class="st1" d="M469.3,298.6h-8.5v21.9h-2.7v-24.6h11.2V298.6z"/>
			<path class="st1" d="M461.1,320.8h-3.3v-25.2h11.8v3.3h-8.5V320.8z M458.4,320.3h2.2v-21.9h8.5v-2.2h-10.7V320.3z"/>
		</g>
		<g>
			<path class="st1" d="M488,309.2c0,3.8-0.8,6.8-2.4,8.9c-1.6,2-3.8,3-6.6,3s-5.1-1-6.6-3c-1.6-2.1-2.4-5-2.4-8.9v-1.9
				c0-3.8,0.8-6.8,2.4-8.8c1.6-2,3.8-3,6.6-3s5.1,1,6.6,3c1.6,2,2.4,5,2.4,8.8V309.2z M485.1,308.9v-1.2c0-6.3-2.1-9.5-6.2-9.5
				c-4.2,0-6.2,3.2-6.2,9.5v1.2c0,6.3,2.1,9.5,6.2,9.5C483.1,318.4,485.1,315.2,485.1,308.9z"/>
			<path class="st1" d="M478.9,321.3c-2.9,0-5.2-1-6.8-3.1c-1.7-2.1-2.5-5.1-2.5-9v-1.9c0-3.9,0.8-6.9,2.5-9
				c1.6-2.1,3.9-3.1,6.8-3.1c2.9,0,5.2,1,6.8,3.1c1.7,2.1,2.5,5.1,2.5,9v1.9c0,3.9-0.8,6.9-2.5,9
				C484.1,320.2,481.8,321.3,478.9,321.3z M478.9,295.8c-2.8,0-4.9,1-6.4,2.9c-1.6,2-2.4,4.9-2.4,8.7v1.9c0,3.8,0.8,6.7,2.4,8.7
				c1.5,1.9,3.7,2.9,6.4,2.9c2.7,0,4.9-1,6.4-2.9c1.6-2,2.4-4.9,2.4-8.7v-1.9c0-3.8-0.8-6.7-2.4-8.7
				C483.8,296.7,481.6,295.8,478.9,295.8z M478.9,318.6c-4.3,0-6.5-3.3-6.5-9.8v-1.2c0-6.5,2.2-9.8,6.5-9.8c4.3,0,6.5,3.3,6.5,9.8
				v1.2C485.4,315.4,483.2,318.6,478.9,318.6z M478.9,298.4c-4,0-6,3-6,9.2v1.2c0,6.2,1.9,9.2,6,9.2s6-3,6-9.2v-1.2
				C484.9,301.4,482.9,298.4,478.9,298.4z"/>
		</g>
		<g>
			<path class="st1" d="M507.7,320.6H505v-22h-9.5v22h-2.7v-24.6h14.9V320.6z"/>
			<path class="st1" d="M508,320.8h-3.3v-22h-9v22h-3.2v-25.2H508V320.8z M505.3,320.3h2.2v-24.1h-14.4v24.1h2.1v-22h10.1V320.3z"/>
		</g>
		<g>
			<path class="st1" d="M526.8,302.8c0,2.4-0.6,4.2-1.9,5.5c-1.2,1.3-3,2-5.4,2c-1.4,0-2.6-0.1-3.6-0.4v10.6h-2.7v-24.6h5
				c2.9,0,4.9,0.4,6,1.3C525.9,298.6,526.8,300.5,526.8,302.8z M524,302.9c0-1.6-0.4-2.8-1.1-3.4c-0.7-0.6-1.9-1-3.6-1h-3.4v8.7
				c1.3,0.4,2.6,0.6,3.8,0.6C522.5,307.8,524,306.2,524,302.9z"/>
			<path class="st1" d="M516.2,320.8h-3.3v-25.2h5.3c3,0,5,0.4,6.2,1.4c1.7,1.4,2.6,3.4,2.6,5.8c0,2.4-0.6,4.4-1.9,5.7
				c-1.3,1.4-3.2,2.1-5.6,2.1c-1.2,0-2.4-0.1-3.3-0.3V320.8z M513.5,320.3h2.2v-10.7l0.3,0.1c1,0.3,2.2,0.4,3.6,0.4
				c2.2,0,4-0.6,5.2-1.9c1.2-1.2,1.8-3,1.8-5.3c0-2.3-0.8-4.1-2.4-5.4c-1-0.8-3-1.2-5.8-1.2h-4.8V320.3z M519.7,308.1
				c-1.2,0-2.5-0.2-3.9-0.6l-0.2-0.1v-9.1h3.6c1.8,0,3,0.3,3.8,1c0.8,0.7,1.2,1.9,1.2,3.6C524.2,306.3,522.7,308.1,519.7,308.1z
				 M516.2,307c1.2,0.4,2.4,0.5,3.5,0.5c2.7,0,4-1.5,4-4.6c0-1.6-0.3-2.6-1-3.2c-0.7-0.6-1.8-0.9-3.4-0.9h-3.1V307z"/>
		</g>
		<g>
			<path class="st1" d="M547.6,309.2c0,3.8-0.8,6.8-2.4,8.9c-1.6,2-3.8,3-6.6,3c-2.9,0-5.1-1-6.6-3c-1.6-2.1-2.4-5-2.4-8.9v-1.9
				c0-3.8,0.8-6.8,2.4-8.8c1.6-2,3.8-3,6.6-3c2.9,0,5.1,1,6.6,3c1.6,2,2.4,5,2.4,8.8V309.2z M544.7,308.9v-1.2
				c0-6.3-2.1-9.5-6.2-9.5c-4.2,0-6.2,3.2-6.2,9.5v1.2c0,6.3,2.1,9.5,6.2,9.5C542.7,318.4,544.7,315.2,544.7,308.9z"/>
			<path class="st1" d="M538.5,321.3c-2.9,0-5.2-1-6.8-3.1c-1.7-2.1-2.5-5.1-2.5-9v-1.9c0-3.9,0.8-6.9,2.5-9
				c1.6-2.1,3.9-3.1,6.8-3.1c2.9,0,5.2,1,6.8,3.1c1.7,2.1,2.5,5.1,2.5,9v1.9c0,3.9-0.8,6.9-2.5,9
				C543.7,320.2,541.4,321.3,538.5,321.3z M538.5,295.8c-2.8,0-4.9,1-6.4,2.9c-1.6,2-2.4,4.9-2.4,8.7v1.9c0,3.8,0.8,6.7,2.4,8.7
				c1.5,1.9,3.7,2.9,6.4,2.9c2.7,0,4.9-1,6.4-2.9c1.6-2,2.4-4.9,2.4-8.7v-1.9c0-3.8-0.8-6.7-2.4-8.7
				C543.4,296.7,541.3,295.8,538.5,295.8z M538.5,318.6c-4.3,0-6.5-3.3-6.5-9.8v-1.2c0-6.5,2.2-9.8,6.5-9.8s6.5,3.3,6.5,9.8v1.2
				C545,315.4,542.8,318.6,538.5,318.6z M538.5,298.4c-4,0-6,3-6,9.2v1.2c0,6.2,1.9,9.2,6,9.2c4,0,6-3,6-9.2v-1.2
				C544.5,301.4,542.5,298.4,538.5,298.4z"/>
		</g>
		<g>
			<path class="st1" d="M573.7,308.1c0,3.4-1,5.9-3,7.6c-1.5,1.2-3.2,1.9-5.3,1.9h-1.6v3.5h-2.6v-3.5h-1.6c-2.1,0-3.8-0.6-5.3-1.9
				c-2-1.7-3-4.2-3-7.6c0-3.4,1-5.9,3-7.6c1.5-1.2,3.2-1.9,5.3-1.9h1.6v-3.1h2.6v3.1h1.6c2,0,3.8,0.6,5.3,1.9
				C572.7,302.1,573.7,304.7,573.7,308.1z M561.4,315.2v-14.3h-1.6c-3.8,0-5.7,2.4-5.7,7.2c0,4.7,1.9,7.1,5.7,7.1H561.4z
				 M570.9,308.1c0-4.8-1.9-7.2-5.6-7.2h-1.5v14.3h1.5C569,315.2,570.9,312.8,570.9,308.1z"/>
			<path class="st1" d="M564.1,321.3H561v-3.5h-1.3c-2.1,0-4-0.7-5.5-1.9c-2-1.7-3.1-4.3-3.1-7.8c0-3.5,1-6.1,3.1-7.8
				c1.5-1.3,3.4-1.9,5.5-1.9h1.3v-3.1h3.1v3.1h1.4c2.1,0,3.9,0.6,5.5,1.9c2,1.7,3.1,4.3,3.1,7.8c0,3.5-1,6.1-3.1,7.8
				c-1.5,1.3-3.4,1.9-5.5,1.9h-1.4V321.3z M561.5,320.7h2v-3.5h1.9c2,0,3.7-0.6,5.1-1.8c1.9-1.6,2.9-4.1,2.9-7.4
				c0-3.3-1-5.8-2.9-7.4c-1.4-1.2-3.1-1.8-5.1-1.8h-1.9v-3.1h-2v3.1h-1.9c-2,0-3.7,0.6-5.1,1.8c-1.9,1.6-2.9,4.1-2.9,7.4
				c0,3.3,1,5.8,2.9,7.4c1.4,1.2,3.1,1.8,5.1,1.8h1.9V320.7z M565.3,315.5h-1.8v-14.8h1.8c3.9,0,5.9,2.5,5.9,7.4
				C571.2,313,569.2,315.5,565.3,315.5z M564,314.9h1.3c3.6,0,5.4-2.2,5.4-6.8c0-4.6-1.8-6.9-5.4-6.9H564V314.9z M561.6,315.5h-1.8
				c-3.9,0-5.9-2.5-5.9-7.4c0-4.9,2-7.4,5.9-7.4h1.8V315.5z M559.8,301.2c-3.6,0-5.4,2.2-5.4,6.9c0,4.6,1.8,6.8,5.4,6.8h1.3v-13.7
				H559.8z"/>
		</g>
		<g>
			<path class="st1" d="M607.7,320.6h-2.6v-21.2H605l-6.6,21.2h-2.5l-6.6-21.2v21.2h-2.6v-24.6h4.2l6.3,20.5l6.3-20.5h4.2V320.6z"/>
			<path class="st1" d="M607.9,320.8h-3.2V301l-6.2,19.9h-3l-0.1-0.2l-6.1-19.5v19.7h-3.2v-25.2h4.7l0.1,0.2l6,19.7l6.1-19.9h4.7
				V320.8z M605.3,320.3h2.1v-24.1h-3.8l-6.5,21.2l-6.5-21.2h-3.8v24.1h2.1v-22.7l7.1,22.7h2.1l6.6-21.2h0.5l0.1,0.3V320.3z"/>
		</g>
		<g>
			<path class="st1" d="M630.7,309.2c0,3.8-0.8,6.8-2.4,8.9c-1.6,2-3.8,3-6.6,3c-2.9,0-5.1-1-6.6-3c-1.6-2.1-2.4-5-2.4-8.9v-1.9
				c0-3.8,0.8-6.8,2.4-8.8c1.6-2,3.8-3,6.6-3c2.9,0,5.1,1,6.6,3c1.6,2,2.4,5,2.4,8.8V309.2z M627.8,308.9v-1.2
				c0-6.3-2.1-9.5-6.2-9.5c-4.2,0-6.2,3.2-6.2,9.5v1.2c0,6.3,2.1,9.5,6.2,9.5C625.7,318.4,627.8,315.2,627.8,308.9z"/>
			<path class="st1" d="M621.6,321.3c-2.9,0-5.2-1-6.8-3.1c-1.7-2.1-2.5-5.1-2.5-9v-1.9c0-3.9,0.8-6.9,2.5-9
				c1.6-2.1,3.9-3.1,6.8-3.1c2.9,0,5.2,1,6.8,3.1c1.7,2.1,2.5,5.1,2.5,9v1.9c0,3.9-0.8,6.9-2.5,9
				C626.8,320.2,624.5,321.3,621.6,321.3z M621.6,295.8c-2.8,0-4.9,1-6.4,2.9c-1.6,2-2.4,4.9-2.4,8.7v1.9c0,3.8,0.8,6.7,2.4,8.7
				c1.5,1.9,3.7,2.9,6.4,2.9c2.7,0,4.9-1,6.4-2.9c1.6-2,2.4-4.9,2.4-8.7v-1.9c0-3.8-0.8-6.7-2.4-8.7
				C626.5,296.7,624.3,295.8,621.6,295.8z M621.6,318.6c-4.3,0-6.5-3.3-6.5-9.8v-1.2c0-6.5,2.2-9.8,6.5-9.8s6.5,3.3,6.5,9.8v1.2
				C628.1,315.4,625.9,318.6,621.6,318.6z M621.6,298.4c-4,0-6,3-6,9.2v1.2c0,6.2,1.9,9.2,6,9.2c4,0,6-3,6-9.2v-1.2
				C627.5,301.4,625.6,298.4,621.6,298.4z"/>
		</g>
		<g>
			<path class="st1" d="M650.8,320.6h-2.7v-11.5h-9.9v11.5h-2.7v-24.6h2.7v10.6h9.9v-10.6h2.7V320.6z"/>
			<path class="st1" d="M651,320.8h-3.2v-11.5h-9.3v11.5h-3.2v-25.2h3.2v10.6h9.3v-10.6h3.2V320.8z M648.4,320.3h2.1v-24.1h-2.1
				v10.6h-10.4v-10.6h-2.1v24.1h2.1v-11.5h10.4V320.3z"/>
		</g>
		<g>
			<path class="st1" d="M670.3,298.6h-6.7v22H661v-22h-6.6v-2.7h15.9V298.6z"/>
			<path class="st1" d="M663.9,320.8h-3.2v-22h-6.6v-3.2h16.5v3.2h-6.7V320.8z M661.3,320.3h2.1v-22h6.7v-2.1h-15.4v2.1h6.6V320.3z"
				/>
		</g>
		<g>
			<path class="st1" d="M686.8,320.6h-3.1l-2-6.4h-9.2l-2.2,6.4h-2.7l8.4-24.6h2.9L686.8,320.6z M681,311.6l-3.7-12.5l-3.9,12.5H681
				z"/>
			<path class="st1" d="M687.1,320.8h-3.7l-2-6.4h-8.8l-2.2,6.4h-3.3l8.6-25.2h3.3l0.1,0.2L687.1,320.8z M683.9,320.3h2.5l-7.7-24.1
				h-2.5l-8.2,24.1h2.2l2.2-6.4h9.6L683.9,320.3z M681.3,311.9h-8.4l4.3-13.7L681.3,311.9z M673.7,311.3h6.9l-3.3-11.3L673.7,311.3z
				"/>
		</g>
		<g>
			<path class="st1" d="M714.4,320.6h-2.8c-0.5-1.6-0.7-3.4-0.7-5.4c0-2.4-0.4-4.1-1.1-5.1c-0.7-1-2-1.5-3.8-1.5
				c-0.9,0-1.8,0.1-2.7,0.2v11.8h-2.6v-11.8c-0.9-0.2-1.8-0.2-2.7-0.2c-1.8,0-3.1,0.5-3.8,1.5c-0.7,1-1.1,2.7-1.1,5.1
				c0,2-0.2,3.8-0.7,5.4h-2.8c0.5-1.3,0.8-3.1,0.8-5.4c0-2.5,0.3-4.3,0.8-5.4c0.5-1,1.4-1.9,2.8-2.7c-1.3-1.3-1.9-3-1.9-4.9v-1.5
				c0-1.6-0.4-2.4-1.1-2.4c-0.3,0-0.7,0.1-1.2,0.3v-2.6c0.4-0.2,1.1-0.3,2.1-0.3c0.8,0,1.4,0.4,1.9,1.1c0.5,0.8,0.8,2,0.8,3.5v2.4
				c0,1,0.3,1.9,0.9,2.6c0.6,0.7,1.5,1.1,2.5,1.1c1,0,1.9-0.1,2.8-0.2v-10.1h2.6v10.1c0.9,0.2,1.8,0.2,2.8,0.2c1,0,1.9-0.4,2.5-1.1
				c0.6-0.7,0.9-1.6,0.9-2.6v-2.4c0-3.1,0.9-4.6,2.7-4.6c0.9,0,1.6,0.1,2.1,0.3v2.6c-0.5-0.2-0.9-0.3-1.2-0.3
				c-0.7,0-1.1,0.8-1.1,2.4v1.5c0,1.9-0.7,3.5-2,4.9c1.4,0.8,2.4,1.7,2.9,2.7c0.5,1.1,0.8,2.9,0.8,5.4
				C713.6,317.5,713.9,319.3,714.4,320.6z"/>
			<path class="st1" d="M714.8,320.8h-3.4l-0.1-0.2c-0.5-1.6-0.7-3.4-0.7-5.5c0-2.3-0.4-4-1.1-5c-0.7-1-1.9-1.4-3.6-1.4
				c-0.8,0-1.6,0.1-2.4,0.2v11.9h-3.2V309c-0.8-0.1-1.6-0.2-2.4-0.2c-1.7,0-2.9,0.5-3.6,1.4c-0.7,1-1.1,2.6-1.1,5
				c0,2-0.2,3.9-0.7,5.5l-0.1,0.2h-3.4l0.1-0.4c0.5-1.3,0.7-3,0.7-5.3c0-2.5,0.3-4.4,0.8-5.5c0.5-1,1.4-1.9,2.7-2.6
				c-1.2-1.3-1.7-3-1.7-4.8v-1.5c0-1-0.1-2.1-0.8-2.1c-0.3,0-0.7,0.1-1.1,0.3l-0.4,0.2v-3.2l0.2-0.1c0.5-0.2,1.2-0.3,2.2-0.3
				c0.9,0,1.6,0.4,2.2,1.2c0.5,0.9,0.8,2.1,0.8,3.6v2.4c0,1,0.3,1.8,0.8,2.4c0.6,0.7,1.3,1,2.3,1c0.9,0,1.7-0.1,2.5-0.2v-10.2h3.2
				v10.2c0.8,0.1,1.7,0.2,2.5,0.2c1,0,1.7-0.3,2.3-1c0.6-0.6,0.8-1.4,0.8-2.4v-2.4c0-3.2,1-4.9,2.9-4.9c1,0,1.7,0.1,2.2,0.3l0.2,0.1
				v3.2l-0.4-0.2c-0.4-0.2-0.8-0.3-1.1-0.3c-0.6,0-0.8,1.2-0.8,2.1v1.5c0,1.8-0.6,3.5-1.8,4.8c1.3,0.7,2.2,1.6,2.7,2.6
				c0.5,1.1,0.8,3,0.8,5.5c0,2.3,0.2,4,0.7,5.3L714.8,320.8z M711.8,320.3h2.2c-0.4-1.3-0.6-3-0.6-5.1c0-2.4-0.2-4.2-0.7-5.3
				c-0.5-1-1.4-1.8-2.7-2.6l-0.3-0.2l0.2-0.3c1.2-1.3,1.9-2.9,1.9-4.7v-1.5c0-1.8,0.4-2.7,1.3-2.7c0.3,0,0.6,0.1,0.9,0.2v-2.1
				c-0.4-0.1-1-0.2-1.8-0.2c-1.6,0-2.4,1.4-2.4,4.3v2.4c0,1.1-0.3,2.1-1,2.8c-0.7,0.8-1.6,1.2-2.7,1.2c-1,0-1.9-0.1-2.8-0.2l-0.2,0
				v-10.1h-2.1v10.1l-0.2,0c-0.9,0.2-1.8,0.2-2.8,0.2c-1.1,0-2-0.4-2.7-1.2c-0.6-0.7-1-1.7-1-2.8v-2.4c0-1.4-0.2-2.6-0.7-3.3
				c-0.4-0.7-1-1-1.7-1c-0.8,0-1.4,0.1-1.8,0.2v2.1c0.3-0.1,0.7-0.2,0.9-0.2c0.9,0,1.4,0.9,1.4,2.7v1.5c0,1.8,0.6,3.4,1.8,4.7
				l0.3,0.3l-0.3,0.2c-1.4,0.7-2.3,1.6-2.7,2.6c-0.5,1.1-0.7,2.8-0.7,5.3c0,2.1-0.2,3.8-0.6,5.1h2.2c0.4-1.5,0.6-3.2,0.6-5.1
				c0-2.4,0.4-4.2,1.2-5.3c0.8-1.1,2.2-1.7,4.1-1.7c0.9,0,1.8,0.1,2.7,0.2l0.2,0v11.8h2.1v-11.8l0.2,0c0.9-0.2,1.8-0.2,2.7-0.2
				c1.9,0,3.3,0.6,4.1,1.7c0.8,1.1,1.2,2.8,1.2,5.3C711.1,317.1,711.3,318.8,711.8,320.3z"/>
		</g>
		<g>
			<path class="st1" d="M305.4,345.6h-6.7v22h-2.7v-22h-6.6v-2.7h15.9V345.6z"/>
			<path class="st1" d="M299,367.8h-3.2v-22h-6.6v-3.2h16.5v3.2H299V367.8z M296.3,367.3h2.1v-22h6.7v-2.1h-15.4v2.1h6.6V367.3z"/>
		</g>
		<g>
			<path class="st1" d="M321.6,355.6c0,8.3-2.7,12.4-8,12.4c-2.3,0-4.2-0.6-5.6-1.9c-1.3-1.3-2-2.9-2-5h2.8c0,1.3,0.4,2.3,1.3,3.1
				c0.8,0.8,1.9,1.2,3.2,1.2c3.7,0,5.5-3.1,5.5-9.4h-7.6v-2.5h7.6c0-5.6-1.8-8.4-5.5-8.4c-1.3,0-2.3,0.4-3.2,1.1
				c-0.8,0.7-1.3,1.6-1.3,2.8H306c0-1.9,0.7-3.5,2-4.6c1.3-1.2,3.2-1.8,5.5-1.8c2.5,0,4.4,0.9,5.7,2.7c1.5,2,2.2,4.9,2.2,8.8V355.6z
				"/>
			<path class="st1" d="M313.6,368.3c-2.4,0-4.3-0.7-5.8-2c-1.4-1.3-2.1-3-2.1-5.2v-0.3h3.4v0.3c0,1.2,0.4,2.2,1.2,2.9
				c0.8,0.7,1.8,1.1,3,1.1c3.4,0,5.2-2.9,5.2-8.9h-7.6v-3h7.6c-0.1-5.3-1.8-7.9-5.2-7.9c-1.2,0-2.2,0.3-3,1
				c-0.8,0.7-1.2,1.5-1.2,2.5v0.3h-3.4v-0.3c0-2,0.7-3.6,2.1-4.9c1.4-1.2,3.3-1.8,5.7-1.8c2.5,0,4.5,1,6,2.8c1.5,2,2.3,5,2.3,8.9
				v1.6C321.8,364,319.1,368.3,313.6,368.3z M306.3,361.4c0.1,1.8,0.7,3.3,1.9,4.5c1.3,1.2,3.1,1.8,5.4,1.8c5.2,0,7.7-4,7.7-12.1
				V354c0-3.8-0.7-6.7-2.2-8.6c-1.3-1.7-3.2-2.6-5.5-2.6c-2.3,0-4.1,0.6-5.4,1.7c-1.2,1.1-1.9,2.5-1.9,4.2h2.3
				c0.1-1.1,0.5-2,1.3-2.7c0.9-0.7,2-1.1,3.3-1.1c3.8,0,5.8,2.9,5.8,8.7v0.3h-7.6v1.9h7.6v0.3c0,6.4-1.9,9.7-5.8,9.7
				c-1.3,0-2.5-0.4-3.3-1.2c-0.8-0.8-1.3-1.8-1.3-3H306.3z"/>
		</g>
		<g>
			<path class="st1" d="M341.4,367.6h-2.7v-22h-9.5v22h-2.7v-24.6h14.9V367.6z"/>
			<path class="st1" d="M341.6,367.8h-3.3v-22h-9v22h-3.2v-25.2h15.5V367.8z M338.9,367.3h2.2v-24.1h-14.4v24.1h2.1v-22h10.1V367.3z
				"/>
		</g>
		<g>
			<path class="st1" d="M352.4,360.4h-6.5v-2.9h6.5V360.4z"/>
			<path class="st1" d="M352.7,360.7h-7v-3.4h7V360.7z M346.2,360.1h5.9v-2.3h-5.9V360.1z"/>
		</g>
		<g>
			<path class="st1" d="M371.8,361.1c0,2.1-0.7,3.7-2,5c-1.4,1.3-3.2,1.9-5.5,1.9c-2.5,0-4.4-1-5.8-3c-1.5-2.1-2.2-5-2.2-8.8v-2
				c0-7.8,2.7-11.7,8-11.7c2.3,0,4.2,0.6,5.5,1.8c1.3,1.2,2,2.8,2,4.9H369c0-1.2-0.4-2.2-1.3-3c-0.8-0.8-1.9-1.1-3.2-1.1
				c-1.6,0-2.9,0.8-3.9,2.4c-1.1,1.7-1.6,4.1-1.6,7.1v1.2c0,3.1,0.5,5.4,1.5,7.2c1,1.6,2.3,2.5,4,2.5c1.3,0,2.3-0.4,3.2-1.2
				s1.3-1.8,1.3-3.1H371.8z"/>
			<path class="st1" d="M364.3,368.3c-2.5,0-4.6-1-6-3.1c-1.5-2.1-2.2-5.1-2.2-9v-2c0-8,2.8-12,8.2-12c2.4,0,4.3,0.6,5.7,1.9
				c1.4,1.3,2.1,3,2.1,5.1v0.3h-3.4v-0.3c0-1.2-0.4-2.1-1.2-2.8c-0.8-0.7-1.8-1.1-3-1.1c-1.5,0-2.7,0.8-3.6,2.3c-1,1.7-1.6,4-1.6,7
				v1.2c0,3,0.5,5.4,1.5,7c0.9,1.6,2.2,2.3,3.7,2.3c1.2,0,2.2-0.4,3-1.1c0.8-0.7,1.2-1.7,1.2-2.9v-0.3h3.4v0.3
				c0,2.1-0.7,3.9-2.1,5.2C368.6,367.6,366.7,368.3,364.3,368.3z M364.3,342.8c-5.2,0-7.7,3.7-7.7,11.5v2c0,3.7,0.7,6.6,2.1,8.7
				c1.4,1.9,3.2,2.8,5.6,2.8c2.3,0,4.1-0.6,5.4-1.8c1.2-1.1,1.8-2.6,1.9-4.5h-2.3c-0.1,1.2-0.5,2.3-1.3,3c-0.9,0.8-2,1.2-3.3,1.2
				c-1.8,0-3.2-0.9-4.2-2.6c-1-1.7-1.5-4.2-1.5-7.3v-1.2c0-3,0.6-5.5,1.6-7.3c1-1.7,2.4-2.6,4.1-2.6c1.3,0,2.5,0.4,3.3,1.2
				c0.8,0.8,1.3,1.7,1.3,2.9h2.3c-0.1-1.8-0.7-3.3-1.9-4.4C368.3,343.4,366.5,342.8,364.3,342.8z"/>
		</g>
		<g>
			<path class="st1" d="M387.4,367.6h-12.6v-24.6h12.4v2.7h-9.7v7.8h9.3v2.6h-9.3v8.9h9.9V367.6z"/>
			<path class="st1" d="M387.7,367.8h-13.2v-25.2h13v3.2h-9.7v7.3h9.3v3.1h-9.3v8.3h9.9V367.8z M375,367.3h12.1v-2.1h-9.9v-9.4h9.3
				v-2h-9.3v-8.4h9.7v-2.1H375V367.3z"/>
		</g>
		<g>
			<path class="st1" d="M403.8,349.8c0,2.4-0.6,4.2-1.9,5.5c-1.2,1.3-3,2-5.4,2c-1.4,0-2.6-0.1-3.6-0.4v10.6h-2.7v-24.6h5
				c2.9,0,4.9,0.4,6,1.3C403,345.6,403.8,347.5,403.8,349.8z M401,349.9c0-1.6-0.4-2.8-1.1-3.4c-0.7-0.6-1.9-1-3.6-1H393v8.7
				c1.3,0.4,2.6,0.6,3.8,0.6C399.6,354.8,401,353.2,401,349.9z"/>
			<path class="st1" d="M393.2,367.8H390v-25.2h5.3c3,0,5,0.4,6.2,1.4c1.7,1.4,2.6,3.4,2.6,5.8s-0.6,4.4-1.9,5.7
				c-1.3,1.4-3.2,2.1-5.6,2.1c-1.2,0-2.4-0.1-3.3-0.3V367.8z M390.5,367.3h2.2v-10.7l0.3,0.1c1,0.3,2.2,0.4,3.6,0.4
				c2.2,0,4-0.6,5.2-1.9c1.2-1.2,1.8-3,1.8-5.3c0-2.3-0.8-4.1-2.4-5.4c-1-0.8-3-1.2-5.8-1.2h-4.8V367.3z M396.8,355.1
				c-1.2,0-2.5-0.2-3.9-0.6l-0.2-0.1v-9.1h3.6c1.8,0,3,0.3,3.8,1c0.8,0.7,1.2,1.9,1.2,3.6C401.3,353.3,399.8,355.1,396.8,355.1z
				 M393.2,354c1.2,0.4,2.4,0.5,3.5,0.5c2.7,0,4-1.5,4-4.6c0-1.6-0.3-2.6-1-3.2c-0.7-0.6-1.8-0.9-3.4-0.9h-3.1V354z"/>
		</g>
		<g>
			<path class="st1" d="M421.5,361.1c0,2.4-0.6,4.1-1.7,5.1c-1.1,0.9-2.8,1.4-5.2,1.4h-7.5v-24.6h6.9c4.4,0,6.7,2.1,6.7,6.2
				c0,1.2-0.3,2.3-0.8,3.2c-0.6,1-1.4,1.7-2.4,2.1v0.3C420.1,355.5,421.5,357.6,421.5,361.1z M417.9,349.5c0-2.7-1.4-4.1-4.1-4.1h-4
				v8c1.1,0.2,2.2,0.3,3.4,0.3c1.7,0,3-0.3,3.6-0.9C417.5,352.1,417.9,351,417.9,349.5z M418.6,360.6c0-3.2-1.8-4.8-5.4-4.8
				c-1.4,0-2.6,0.1-3.4,0.3v8.9h4.4c1.5,0,2.7-0.3,3.4-1C418.2,363.4,418.6,362.2,418.6,360.6z"/>
			<path class="st1" d="M414.6,367.8h-7.8v-25.2h7.2c4.6,0,6.9,2.2,6.9,6.5c0,1.3-0.3,2.4-0.8,3.4c-0.6,1-1.3,1.7-2.3,2.1
				c2.6,0.8,3.9,3,3.9,6.5c0,2.5-0.6,4.2-1.8,5.3C418.8,367.3,417,367.8,414.6,367.8z M407.4,367.3h7.2c2.3,0,4-0.4,5-1.3
				c1.1-0.9,1.6-2.6,1.6-4.9c0-3.3-1.2-5.3-3.8-6l-0.2-0.1v-0.7l0.2-0.1c1-0.4,1.7-1,2.3-2c0.5-0.9,0.8-1.9,0.8-3.1
				c0-4-2.1-5.9-6.4-5.9h-6.7V367.3z M414.2,365.3h-4.7v-9.4l0.2-0.1c0.9-0.2,2-0.3,3.5-0.3c3.8,0,5.7,1.7,5.7,5
				c0,1.7-0.4,2.9-1.1,3.7C417,365,415.8,365.3,414.2,365.3z M410.1,364.8h4.1c1.5,0,2.5-0.3,3.2-0.9c0.6-0.6,1-1.7,1-3.3
				c0-3-1.7-4.5-5.1-4.5c-1.3,0-2.3,0.1-3.1,0.2V364.8z M413.2,354c-1.2,0-2.4-0.1-3.4-0.3l-0.2,0v-8.5h4.3c2.9,0,4.4,1.5,4.4,4.4
				c0,1.6-0.4,2.7-1.1,3.4C416.3,353.6,415,354,413.2,354z M410.1,353.1c1,0.2,2,0.3,3.1,0.3c1.7,0,2.8-0.3,3.5-0.9
				c0.6-0.6,0.9-1.6,0.9-3c0-2.6-1.2-3.8-3.8-3.8h-3.7V353.1z"/>
		</g>
		<g>
			<path class="st1" d="M442,367.6h-2.7v-19.6l-10.4,19.6h-2.7v-24.6h2.7v19.6l10.4-19.6h2.7V367.6z"/>
			<path class="st1" d="M442.3,367.8H439v-18.8l-9.9,18.8h-3.1v-25.2h3.3v18.8l9.9-18.8h3.1V367.8z M439.5,367.3h2.2v-24.1h-2.3
				l-10.8,20.4v-20.4h-2.2v24.1h2.3l10.8-20.4V367.3z"/>
		</g>
		<g>
			<path class="st1" d="M462.3,361.1c0,2.1-0.7,3.7-2,5c-1.4,1.3-3.2,1.9-5.5,1.9c-2.5,0-4.4-1-5.8-3c-1.5-2.1-2.2-5-2.2-8.8v-2
				c0-7.8,2.7-11.7,8-11.7c2.3,0,4.2,0.6,5.5,1.8c1.3,1.2,2,2.8,2,4.9h-2.8c0-1.2-0.4-2.2-1.3-3c-0.8-0.8-1.9-1.1-3.2-1.1
				c-1.6,0-2.9,0.8-3.9,2.4c-1.1,1.7-1.6,4.1-1.6,7.1v1.2c0,3.1,0.5,5.4,1.5,7.2c1,1.6,2.3,2.5,4,2.5c1.3,0,2.3-0.4,3.2-1.2
				c0.8-0.8,1.3-1.8,1.3-3.1H462.3z"/>
			<path class="st1" d="M454.8,368.3c-2.5,0-4.6-1-6-3.1c-1.5-2.1-2.2-5.1-2.2-9v-2c0-8,2.8-12,8.2-12c2.4,0,4.3,0.6,5.7,1.9
				c1.4,1.3,2.1,3,2.1,5.1v0.3h-3.4v-0.3c0-1.2-0.4-2.1-1.2-2.8c-0.8-0.7-1.8-1.1-3-1.1c-1.5,0-2.7,0.8-3.6,2.3c-1,1.7-1.6,4-1.6,7
				v1.2c0,3,0.5,5.4,1.5,7c0.9,1.6,2.2,2.3,3.7,2.3c1.2,0,2.2-0.4,3-1.1c0.8-0.7,1.2-1.7,1.2-2.9v-0.3h3.4v0.3
				c0,2.1-0.7,3.9-2.1,5.2C459.1,367.6,457.2,368.3,454.8,368.3z M454.8,342.8c-5.2,0-7.7,3.7-7.7,11.5v2c0,3.7,0.7,6.6,2.1,8.7
				c1.4,1.9,3.2,2.8,5.6,2.8c2.3,0,4.1-0.6,5.4-1.8c1.2-1.1,1.8-2.6,1.9-4.5h-2.3c-0.1,1.2-0.5,2.3-1.3,3c-0.9,0.8-2,1.2-3.3,1.2
				c-1.8,0-3.2-0.9-4.2-2.6c-1-1.7-1.5-4.2-1.5-7.3v-1.2c0-3,0.6-5.5,1.6-7.3c1-1.7,2.4-2.6,4.1-2.6c1.3,0,2.5,0.4,3.3,1.2
				c0.8,0.8,1.3,1.7,1.3,2.9h2.3c-0.1-1.8-0.7-3.3-1.9-4.4C458.8,343.4,457,342.8,454.8,342.8z"/>
		</g>
	</g>
	<g>
		<g>
			<path class="st1" d="M347.5,43.7H339v21.9h-2.7V41h11.2V43.7z"/>
			<path class="st1" d="M339.3,65.9H336V40.7h11.8V44h-8.5V65.9z M336.6,65.4h2.2V43.5h8.5v-2.2h-10.7V65.4z"/>
		</g>
		<g>
			<path class="st1" d="M364.5,47.9c0,2.4-0.6,4.2-1.9,5.5c-1.2,1.3-3,2-5.4,2c-1.4,0-2.6-0.1-3.6-0.4v10.6H351V41h5
				c2.9,0,4.9,0.4,6,1.3C363.7,43.7,364.5,45.6,364.5,47.9z M361.7,48c0-1.6-0.4-2.8-1.1-3.4c-0.7-0.6-1.9-1-3.6-1h-3.4v8.7
				c1.3,0.4,2.6,0.6,3.8,0.6C360.3,52.9,361.7,51.3,361.7,48z"/>
			<path class="st1" d="M354,65.9h-3.3V40.7h5.3c3,0,5,0.4,6.2,1.4c1.7,1.4,2.6,3.4,2.6,5.8c0,2.4-0.6,4.4-1.9,5.7
				c-1.3,1.4-3.2,2.1-5.6,2.1c-1.2,0-2.4-0.1-3.3-0.3V65.9z M351.2,65.4h2.2V54.7l0.3,0.1c1,0.3,2.2,0.4,3.6,0.4
				c2.2,0,4-0.6,5.2-1.9c1.2-1.2,1.8-3,1.8-5.3c0-2.3-0.8-4.1-2.4-5.4c-1-0.8-3-1.2-5.8-1.2h-4.8V65.4z M357.5,53.2
				c-1.2,0-2.5-0.2-3.9-0.6l-0.2-0.1v-9.1h3.6c1.8,0,3,0.3,3.8,1c0.8,0.7,1.2,1.9,1.2,3.6C362,51.4,360.5,53.2,357.5,53.2z
				 M354,52.1c1.2,0.4,2.4,0.5,3.5,0.5c2.7,0,4-1.5,4-4.6c0-1.6-0.3-2.6-1-3.2c-0.7-0.6-1.8-0.9-3.4-0.9H354V52.1z"/>
		</g>
		<g>
			<path class="st1" d="M381.6,41l-7.2,24.4c-0.9,3.1-2.5,4.6-5,4.6c-0.8,0-1.6-0.1-2.3-0.4v-3c0.8,0.5,1.5,0.8,2.1,0.8
				c0.6,0,1.2-0.2,1.5-0.5c0.6-0.5,1.1-1.6,1.5-3.2L365.6,41h2.8l5.2,18.5h0l5.1-18.5H381.6z"/>
			<path class="st1" d="M369.5,70.3c-0.9,0-1.7-0.1-2.4-0.4l-0.2-0.1v-3.7l0.4,0.3c0.8,0.5,1.4,0.7,1.9,0.7c0.6,0,1-0.1,1.3-0.4
				c0.5-0.5,1-1.5,1.4-3l-6.7-23h3.4l5,17.8l4.9-17.8h3.4l-7.3,24.8C373.8,68.6,372,70.3,369.5,70.3z M367.5,69.4
				c0.6,0.2,1.3,0.3,2,0.3c2.3,0,3.8-1.4,4.7-4.4l7-24.1H379l-5.1,18.5h-0.4l-0.1-0.2l-5.2-18.3h-2.2l6.6,22.5l0,0.1
				c-0.4,1.7-0.9,2.7-1.6,3.3c-0.4,0.4-1,0.6-1.7,0.6c-0.5,0-1.1-0.2-1.8-0.6V69.4z"/>
		</g>
		<g>
			<path class="st1" d="M399.8,65.7h-2.7v-22h-9.5v22h-2.7V41h14.9V65.7z"/>
			<path class="st1" d="M400.1,65.9h-3.3V44h-9v22h-3.2V40.7h15.5V65.9z M397.4,65.4h2.2V41.3h-14.4v24.1h2.1v-22h10.1V65.4z"/>
		</g>
		<g>
			<path class="st1" d="M420.2,65.7h-2.7v-22H408v22h-2.7V41h14.9V65.7z"/>
			<path class="st1" d="M420.5,65.9h-3.3V44h-9v22H405V40.7h15.5V65.9z M417.8,65.4h2.2V41.3h-14.4v24.1h2.1v-22h10.1V65.4z"/>
		</g>
		<g>
			<path class="st1" d="M442.9,65.7h-3.1l-2-6.4h-9.2l-2.2,6.4h-2.7l8.4-24.6h2.9L442.9,65.7z M437.1,56.7l-3.7-12.5l-3.9,12.5
				H437.1z"/>
			<path class="st1" d="M443.3,65.9h-3.7l-2-6.4h-8.8l-2.2,6.4h-3.3l8.6-25.2h3.3l0.1,0.2L443.3,65.9z M440,65.4h2.5l-7.7-24.1h-2.5
				l-8.2,24.1h2.2l2.2-6.4h9.6L440,65.4z M437.4,57h-8.4l4.3-13.7L437.4,57z M429.8,56.4h6.9l-3.3-11.3L429.8,56.4z"/>
		</g>
		<g>
			<path class="st1" d="M469.3,65.7h-2.8c-0.5-1.6-0.7-3.4-0.7-5.4c0-2.4-0.4-4.1-1.1-5.1c-0.8-1-2-1.6-3.8-1.6
				c-1.2,0-2.3,0.1-3.4,0.2v11.8h-2.7V41h2.7v10.1c1.1,0.2,2.2,0.2,3.5,0.2c1,0,1.8-0.4,2.5-1.1c0.6-0.7,1-1.6,1-2.6v-2.4
				c0-3.1,0.9-4.6,2.7-4.6c0.9,0,1.6,0.1,2.1,0.3v2.6c-0.5-0.2-0.9-0.3-1.2-0.3c-0.7,0-1.1,0.8-1.1,2.4v1.5c0,1.9-0.7,3.5-2,4.9
				c1.4,0.7,2.4,1.6,2.9,2.7c0.5,1.1,0.8,2.9,0.8,5.4C468.5,62.6,468.8,64.4,469.3,65.7z"/>
			<path class="st1" d="M469.7,65.9h-3.4l-0.1-0.2c-0.5-1.6-0.7-3.4-0.7-5.5c0-2.3-0.3-4-1-4.9c-0.7-1-1.9-1.5-3.6-1.5
				c-1.1,0-2.1,0.1-3.1,0.2v11.8h-3.3V40.7h3.3v10.2c1,0.1,2.1,0.2,3.2,0.2c0.9,0,1.7-0.3,2.3-1c0.6-0.7,0.9-1.5,0.9-2.4v-2.4
				c0-3.2,1-4.9,3-4.9c1,0,1.7,0.1,2.2,0.3l0.2,0.1v3.2l-0.4-0.2c-0.4-0.2-0.8-0.3-1.1-0.3c-0.7,0-0.8,1.2-0.8,2.1v1.5
				c0,1.8-0.6,3.5-1.8,4.8c1.3,0.7,2.2,1.6,2.7,2.6c0.5,1.1,0.8,3,0.8,5.5c0,2.2,0.3,4,0.8,5.3L469.7,65.9z M466.7,65.4h2.2
				c-0.4-1.3-0.7-3-0.7-5.1c0-2.5-0.3-4.2-0.7-5.3c-0.5-1-1.4-1.8-2.7-2.6l-0.3-0.2l0.3-0.3c1.3-1.3,1.9-2.9,1.9-4.7v-1.5
				c0-1.8,0.5-2.7,1.3-2.7c0.3,0,0.6,0.1,0.9,0.2v-2.1c-0.4-0.1-1-0.2-1.8-0.2c-1.6,0-2.4,1.4-2.4,4.3v2.4c0,1.1-0.3,2-1,2.8
				c-0.7,0.8-1.6,1.2-2.7,1.2c-1.3,0-2.5-0.1-3.5-0.2l-0.2,0V41.3h-2.2v24.1h2.2V53.6l0.2,0c1.1-0.2,2.2-0.2,3.4-0.2
				c1.9,0,3.3,0.6,4.1,1.7c0.8,1,1.1,2.8,1.1,5.3C466.1,62.2,466.3,63.9,466.7,65.4z"/>
		</g>
		<g>
			<path class="st1" d="M491.6,54.3c0,3.8-0.8,6.8-2.4,8.9c-1.6,2-3.8,3-6.6,3s-5.1-1-6.6-3c-1.6-2.1-2.4-5-2.4-8.9v-1.9
				c0-3.8,0.8-6.8,2.4-8.8c1.6-2,3.8-3,6.6-3s5.1,1,6.6,3c1.6,2,2.4,5,2.4,8.8V54.3z M488.7,54v-1.2c0-6.3-2.1-9.5-6.2-9.5
				c-4.2,0-6.2,3.2-6.2,9.5V54c0,6.3,2.1,9.5,6.2,9.5C486.7,63.5,488.7,60.3,488.7,54z"/>
			<path class="st1" d="M482.5,66.4c-2.9,0-5.2-1-6.8-3.1c-1.7-2.1-2.5-5.1-2.5-9v-1.9c0-3.9,0.8-6.9,2.5-9c1.6-2.1,3.9-3.1,6.8-3.1
				c2.9,0,5.2,1,6.8,3.1c1.7,2.1,2.5,5.1,2.5,9v1.9c0,3.9-0.8,6.9-2.5,9C487.7,65.3,485.4,66.4,482.5,66.4z M482.5,40.9
				c-2.8,0-4.9,1-6.4,2.9c-1.6,2-2.4,4.9-2.4,8.7v1.9c0,3.8,0.8,6.7,2.4,8.7c1.5,1.9,3.7,2.9,6.4,2.9c2.7,0,4.9-1,6.4-2.9
				c1.6-2,2.4-4.9,2.4-8.7v-1.9c0-3.8-0.8-6.7-2.4-8.7C487.4,41.8,485.3,40.9,482.5,40.9z M482.5,63.8c-4.3,0-6.5-3.3-6.5-9.8v-1.2
				c0-6.5,2.2-9.8,6.5-9.8s6.5,3.3,6.5,9.8V54C489,60.5,486.8,63.8,482.5,63.8z M482.5,43.5c-4,0-6,3-6,9.2V54c0,6.2,1.9,9.2,6,9.2
				s6-3,6-9.2v-1.2C488.5,46.5,486.5,43.5,482.5,43.5z"/>
		</g>
		<g>
			<path class="st1" d="M517.5,65.7h-2.6V44.5h-0.1l-6.6,21.2h-2.5l-6.6-21.2v21.2h-2.6V41h4.2l6.3,20.5l6.3-20.5h4.2V65.7z"/>
			<path class="st1" d="M517.8,65.9h-3.2V46.1l-6.2,19.9h-3l-0.1-0.2l-6.1-19.5v19.7h-3.2V40.7h4.7l0.1,0.2l6,19.7l6.1-19.9h4.7
				V65.9z M515.1,65.4h2.1V41.3h-3.8L507,62.5l-6.5-21.2h-3.8v24.1h2.1V42.7l7.1,22.7h2.1l6.6-21.2h0.5l0.1,0.3V65.4z"/>
		</g>
		<g>
			<path class="st1" d="M537.9,65.7h-2.7v-22h-9.5v22H523V41h14.9V65.7z"/>
			<path class="st1" d="M538.2,65.9H535V44h-9v22h-3.2V40.7h15.5V65.9z M535.5,65.4h2.2V41.3h-14.4v24.1h2.1v-22h10.1V65.4z"/>
		</g>
		<g>
			<path class="st1" d="M560.6,65.7h-3.1l-2-6.4h-9.2l-2.2,6.4h-2.7l8.4-24.6h2.9L560.6,65.7z M554.8,56.7l-3.7-12.5l-3.9,12.5
				H554.8z"/>
			<path class="st1" d="M561,65.9h-3.7l-2-6.4h-8.8l-2.2,6.4H541l8.6-25.2h3.3l0.1,0.2L561,65.9z M557.7,65.4h2.5l-7.7-24.1H550
				l-8.2,24.1h2.2l2.2-6.4h9.6L557.7,65.4z M555.1,57h-8.4l4.3-13.7L555.1,57z M547.5,56.4h6.9l-3.3-11.3L547.5,56.4z"/>
		</g>
		<g>
			<path class="st1" d="M579.3,65.7h-2.7V54.2h-9.9v11.5H564V41h2.7v10.6h9.9V41h2.7V65.7z"/>
			<path class="st1" d="M579.5,65.9h-3.2V54.5H567v11.5h-3.2V40.7h3.2v10.6h9.3V40.7h3.2V65.9z M576.9,65.4h2.1V41.3h-2.1v10.6
				h-10.4V41.3h-2.1v24.1h2.1V53.9h10.4V65.4z"/>
		</g>
		<g>
			<path class="st1" d="M600.5,65.7h-2.7V46.1l-10.4,19.6h-2.7V41h2.7v19.6L597.8,41h2.7V65.7z"/>
			<path class="st1" d="M600.8,65.9h-3.3V47.2l-9.9,18.8h-3.1V40.7h3.3v18.8l9.9-18.8h3.1V65.9z M598.1,65.4h2.2V41.3H598
				l-10.8,20.4V41.3H585v24.1h2.3l10.8-20.4V65.4z"/>
		</g>
		<g>
			<path class="st1" d="M621.8,65.7h-2.7V46.1l-10.4,19.6H606V41.1h2.7v19.6l10.4-19.6h2.7V65.7z M618.6,34.2c0,1.4-0.4,2.5-1.2,3.4
				c-0.8,0.9-2,1.4-3.5,1.4c-1.5,0-2.7-0.5-3.5-1.4c-0.8-0.9-1.2-2-1.2-3.4h2.5c0,0.9,0.2,1.6,0.6,2.1c0.4,0.5,0.9,0.8,1.6,0.8
				c0.6,0,1.1-0.3,1.5-0.8c0.4-0.5,0.6-1.2,0.6-2.1H618.6z"/>
			<path class="st1" d="M622.1,66h-3.3V47.2L608.9,66h-3.1V40.8h3.3v18.8l9.9-18.8h3.1V66z M619.3,65.4h2.2V41.3h-2.3l-10.8,20.4
				V41.3h-2.2v24.1h2.3L619.3,45V65.4z M613.9,39.2c-1.6,0-2.8-0.5-3.7-1.5c-0.8-0.9-1.2-2.1-1.2-3.6v-0.3h3v0.3
				c0,0.8,0.2,1.4,0.6,1.9c0.4,0.5,0.8,0.7,1.3,0.7c0.5,0,1-0.2,1.3-0.7c0.4-0.5,0.6-1.1,0.6-1.9v-0.3h3.1v0.3
				c0,1.4-0.4,2.6-1.2,3.6C616.7,38.7,615.5,39.2,613.9,39.2z M609.5,34.4c0,1.2,0.4,2.2,1.1,2.9c0.8,0.9,1.9,1.3,3.3,1.3
				c1.4,0,2.5-0.4,3.3-1.3c0.7-0.8,1-1.7,1.1-2.9h-2c0,0.8-0.3,1.5-0.7,2c-0.5,0.6-1.1,0.9-1.8,0.9c-0.7,0-1.3-0.3-1.8-0.9
				c-0.4-0.5-0.6-1.2-0.7-2H609.5z"/>
		</g>
	</g>
	<g>
		<path class="st1" d="M304.9,70.3c-9.8,0-17.9-8-17.9-17.9s8-17.9,17.9-17.9c9.8,0,17.9,8,17.9,17.9S314.7,70.3,304.9,70.3z
			 M304.9,37.3c-8.3,0-15.1,6.8-15.1,15.1s6.8,15.1,15.1,15.1c8.3,0,15.1-6.8,15.1-15.1S313.2,37.3,304.9,37.3z"/>
		<g>
			<g>
				<path class="st1" d="M302.8,46.5h-5.3v13.7h-1.7V44.8h7V46.5z"/>
				<path class="st1" d="M314,60.2h-1.7c-0.3-1-0.4-2.1-0.4-3.4c0-1.5-0.2-2.5-0.7-3.2c-0.5-0.7-1.3-1-2.4-1c-0.7,0-1.5,0-2.1,0.1
					v7.4H305V44.8h1.7v6.3c0.7,0.1,1.4,0.1,2.2,0.1c0.6,0,1.1-0.2,1.5-0.7c0.4-0.4,0.6-1,0.6-1.6v-1.5c0-1.9,0.6-2.9,1.7-2.9
					c0.6,0,1,0.1,1.3,0.2v1.6c-0.3-0.1-0.5-0.2-0.7-0.2c-0.4,0-0.7,0.5-0.7,1.5v0.9c0,1.2-0.4,2.2-1.2,3c0.9,0.5,1.5,1,1.8,1.7
					c0.3,0.7,0.5,1.8,0.5,3.4C313.5,58.2,313.7,59.4,314,60.2z"/>
			</g>
		</g>
	</g>
	<g>
		<path class="st2" d="M158.9,95.1c-1.2,1.2-3.7,4.5-3.6,4.7c0,0.1,0.5-0.5,1-1.2c1-1.3,3.2-3.4,4.5-4.2c1.5-0.9,4.8-2,6.8-2.2
			c8.1-1,18.7,3,29.3,11.1l2.6,2l-3.7,3.6c-4.3,4.2-8,8.4-11.6,13.1l-2.6,3.3l-3.4,0.5c-28,4.4-49.3,16.1-53.9,29.7
			c-1.2,3.7-1.3,7.9-0.1,11.5c0.7,2.3,3.1,6.3,4.9,8.2c4.8,5.3,12.1,10,21.2,13.6c2.9,1.1,2.9,1.2,2.8,1.9
			c-1.7,13.5-0.9,22.7,2.6,30.1c3.3,7,9.3,11.2,16.5,11.3c0.6,0-0.2-0.3-2-0.7c-4.6-1.2-7.5-3.3-10.2-7.3
			c-3.6-5.3-5.3-13.7-4.8-23.2c0.2-3.6,0.9-9.5,1.1-9.7c0.1,0,2.2,0.5,4.9,1.2c5.4,1.5,11.8,2.8,17.5,3.5l3.9,0.5l0.9,1.2
			c0.5,0.6,2.1,2.6,3.6,4.4c12.8,15,27,25.4,38.8,28.3c4.5,1.1,8,1.3,11.8,0.5c2.1-0.4,2.4-0.5,5.3-2.2c2.7-1.6,3.1-1.9,4.3-3.4
			c4.3-5.1,6.4-12,6.7-21.4c0.1-2.9-0.4-9.4-1-12.8c-0.2-1.2-0.4-2.2-0.4-2.3s1.1-0.5,2.4-1.1c10.5-4.4,19.4-10.9,23.3-16.9
			c2.4-3.8,3.7-8.3,3.5-12c-0.2-2.6-1-5.6-1.9-7l-0.6-0.9l0.4,1c2.3,6.4,0.7,13.2-4.3,19c-3.5,4-8.5,7.7-14.4,10.7
			c-3.3,1.6-7.7,3.6-8.7,3.8c-0.2,0-0.5-0.8-0.9-2.6c-1.3-5.6-4.4-14.9-6.8-20.6l-0.9-2.1l0.6-1.4c3.1-7.6,6.8-20.8,7.8-28
			c1.6-11.1,1-20.7-1.5-27.7c-1.1-2.9-3.3-6.6-5.1-8.4c-2.2-2.2-4.7-3.7-7.5-4.5c-2.9-0.8-4.5-1-7.4-0.8c-5.6,0.3-10.9,2.3-17.9,6.4
			c-3.6,2.1-5.3,3.3-9.9,6.9l-0.9,0.7l-1.8-1.4c-4.4-3.4-9.3-6.4-14.2-8.6c-3.4-1.5-9.6-3.1-12.6-3.3
			C167.6,89.8,162.5,91.6,158.9,95.1z M152.9,134.4c6-2.9,14.2-5.6,22.6-7.4c2.7-0.6,5.1-1.1,5.4-1.1c0.4,0,0.1,0.6-1.9,3.4
			c-11,15.7-20.1,35.7-23.9,52.4l-0.7,2.8l-1.9-0.9c-4.4-2-10.1-5.5-13-8c-5.3-4.6-8.4-10.2-8.7-15.5
			C130,150.6,137.8,141.6,152.9,134.4z M220.2,98.8c9.9-3.7,17.7-2.7,23.3,2.8c1.7,1.7,3.9,5.3,4.9,8.1c3.3,9.1,2.9,22.7-1,37.6
			c-1.4,5.4-3.7,12.1-3.9,11.9c-0.1-0.1-0.9-1.8-1.8-3.8c-2.2-4.8-9.6-17.5-12.9-22.4c-6.6-9.6-13.6-17.8-21-24.8
			c-1.1-1-1.5-1.5-1.3-1.6C207.3,105.5,217.3,99.8,220.2,98.8z M204.3,109.5c1.6,1.4,5.6,5.6,7.9,8.2c6.1,6.9,10.2,12.5,15.5,21.1
			c5.4,8.8,8.9,15.5,12.2,23.7l1.2,3.1l-1.1,2.4c-0.6,1.3-1.1,2.4-1,2.5c0,0,0.5-0.9,1.1-2.1c0.6-1.2,1.1-2.1,1.2-2
			c0.4,0.3,3.1,8.9,4.1,12.9c1.4,5.7,1.8,8.1,1.3,8.3c-0.2,0-1.5,0.4-2.8,0.8c-1.3,0.4-4,1.1-6,1.5c-17.4,4-37.2,4.8-55.4,2.2
			l-3.3-0.5l-1-1.5c-1.4-2-1.7-2.2-0.5-0.2l1,1.5l-0.6-0.1c-3.1-0.2-15.7-3.5-19.6-5.1l-1-0.4l0.1-1c0.2-1.4,2.5-9.4,4-13.5
			c5.3-15,13.7-30.4,23.6-43.1l2.5-3.2l2.6-0.3c3.3-0.3,3.5-0.4,0.2-0.2l-2.6,0.2l2.1-2.4c3.5-3.9,6.3-6.9,9.5-9.7
			C203.3,108.9,203.5,108.8,204.3,109.5z M191.9,197.2c13.6,0.7,27-0.1,39.8-2.6c4.3-0.8,11.4-2.6,14.3-3.6c0.8-0.2,1.4-0.3,1.5-0.2
			c0.2,0.4,0.6,6.6,0.5,9.4c-0.1,3.8-0.5,6.7-1.3,10.1c-3.2,12.7-12.3,18.1-25.1,14.9c-10.9-2.7-23.9-12-35.8-25.6
			c-1.2-1.3-2.2-2.6-2.3-2.8c-0.1-0.2,0.3-0.3,1.3-0.2C185.5,196.8,188.7,197,191.9,197.2z"/>
		<path id="XMLID_14_" class="st0" d="M173.5,102.9c0,1.7-1.4,3.1-3.1,3.1c-1.7,0-3.1-1.4-3.1-3.1c0-1.7,1.4-3.1,3.1-3.1
			C172.1,99.8,173.5,101.2,173.5,102.9z"/>
		<path id="XMLID_12_" class="st0" d="M212.9,86.6c0.5,1.7-0.5,3.4-2.1,3.9c-1.7,0.5-3.4-0.5-3.9-2.1c-0.5-1.7,0.5-3.4,2.1-3.9
			C210.6,84,212.4,84.9,212.9,86.6z"/>
		<path id="XMLID_10_" class="st0" d="M216.1,212.6c0,1.7-1.4,3.1-3.1,3.1c-1.7,0-3.1-1.4-3.1-3.1c0-1.7,1.4-3.1,3.1-3.1
			C214.7,209.5,216.1,210.9,216.1,212.6z"/>
		<path id="XMLID_8_" class="st0" d="M146.7,224.5c1.6-0.7,3.4,0.1,4.1,1.7c0.7,1.6-0.1,3.4-1.7,4.1c-1.6,0.7-3.4-0.1-4.1-1.7
			C144.4,227,145.1,225.1,146.7,224.5z"/>
		
			<ellipse id="XMLID_6_" transform="matrix(0.2308 -0.973 0.973 0.2308 42.3628 384.5244)" class="st0" cx="264.4" cy="165.5" rx="5" ry="5"/>
		
			<ellipse id="XMLID_4_" transform="matrix(0.812 -0.5837 0.5837 0.812 -5.733 144.9863)" class="st0" cx="222.2" cy="81.4" rx="5" ry="5"/>
		
			<ellipse id="XMLID_2_" transform="matrix(0.9747 -0.2236 0.2236 0.9747 -43.9437 37.1092)" class="st0" cx="141.9" cy="212.6" rx="5" ry="5"/>
		<g>
			<path class="st3" d="M202.2,121.3l-20.4,32.6c-2,3.5-3.2,7.5-3.2,11.8c0,13,10.5,23.6,23.6,23.6c13,0,23.6-10.5,23.6-23.6
				c0-4.3-1.2-8.4-3.2-11.8L202.2,121.3L202.2,121.3z"/>
			<g>
				<path class="st0" d="M208.4,131.2l-6.2-9.9l-20.4,32.6c-2,3.5-3.2,7.5-3.2,11.8c0,13,10.5,23.6,23.6,23.6c0,0,0.1,0,0.1,0
					C174.2,166.1,206.7,132.9,208.4,131.2z"/>
				<path class="st4" d="M222.6,153.9l-8.6-13.7c-28.1,24.8-11.8,49-11.7,49.1c13-0.1,23.4-10.6,23.4-23.6
					C225.8,161.4,224.6,157.3,222.6,153.9z"/>
			</g>
		</g>
	</g>
</g>
</svg>
