<?xml version="1.0" encoding="utf-8"?>
<!-- Generator: Adobe Illustrator 25.4.1, SVG Export Plug-In . SVG Version: 6.00 Build 0)  -->
<svg version="1.1" id="Слой_1" xmlns="http://www.w3.org/2000/svg" xmlns:xlink="http://www.w3.org/1999/xlink" x="0px" y="0px"
	 viewBox="0 0 98.2 32.1" style="enable-background:new 0 0 98.2 32.1;" xml:space="preserve">
<style type="text/css">
	.st0{fill:#941445;}
	.st1{fill:#8699A3;}
</style>
<path class="st0" d="M21.6,6v20.2c0,3.3,2.7,6,6,6h0c3.3,0,6-2.7,6-6V6c0-3.3-2.7-6-6-6h0C24.2,0,21.6,2.7,21.6,6z"/>
<path class="st1" d="M43.1,6v20.2c0,3.3,2.7,6,6,6h0c3.3,0,6-2.7,6-6V6c0-3.3-2.7-6-6-6h0C45.8,0,43.1,2.7,43.1,6z"/>
<path class="st1" d="M64.7,6v20.2c0,3.3,2.7,6,6,6h0c3.3,0,6-2.7,6-6V6c0-3.3-2.7-6-6-6h0C67.4,0,64.7,2.7,64.7,6z"/>
<path class="st1" d="M86.3,6v20.2c0,3.3,2.7,6,6,6h0c3.3,0,6-2.7,6-6V6c0-3.3-2.7-6-6-6h0C88.9,0,86.3,2.7,86.3,6z"/>
<path class="st1" d="M0,6l0,20.2c0,3.3,2.7,6,6,6h0c3.3,0,6-2.7,6-6V6c0-3.3-2.7-6-6-6h0C2.7,0,0,2.7,0,6z"/>
</svg>
