<?xml version="1.0" encoding="utf-8"?>
<!-- Generator: Adobe Illustrator 25.4.1, SVG Export Plug-In . SVG Version: 6.00 Build 0)  -->
<svg version="1.1" id="Layer_1" xmlns="http://www.w3.org/2000/svg" xmlns:xlink="http://www.w3.org/1999/xlink" x="0px" y="0px"
	 viewBox="0 0 19.8 19.7" style="enable-background:new 0 0 19.8 19.7;" xml:space="preserve">
<path d="M15,19.7c-3,0-6.5-2.2-9-4.4c-3.2-3-6.7-7.9-5.9-12c0-0.1,1.4-3.5,4.5-3.2C4.7,0,5,0,5.3,0.1c0.3,0.2,0.6,0.5,0.8,1l1.4,4.4
	c0,0.1,0,0.3-0.1,0.4l-2,2c0.4,0.9,2.2,4.7,6.2,6.3l1.7-1.7c0.1-0.1,0.2-0.1,0.4-0.1l4.9,1.2c0.4,0.1,1.1,0.6,1.1,1.7
	c0,0.1,0.3,2.8-3.2,4.3C16,19.6,15.5,19.7,15,19.7z M4.2,0.8c-2.3,0-3.4,2.7-3.4,2.7c-0.6,3,1.7,7.5,5.8,11.2
	c3.5,3.2,7.3,4.8,9.7,4.1c3-1.3,2.8-3.6,2.7-3.6c0-0.8-0.5-1-0.6-1l-4.7-1.1L12,14.8c-0.1,0.1-0.3,0.1-0.4,0.1c-5.1-1.8-6.9-6.8-7-7
	c0-0.1,0-0.3,0.1-0.4l2-2L5.3,1.4C5.2,1.1,5.1,0.9,4.9,0.8c-0.1-0.1-0.2,0-0.2,0c-0.1,0-0.1,0-0.2,0C4.4,0.8,4.3,0.8,4.2,0.8z"/>
</svg>
